/* XPM */
static char *an46j_92eel[] = {
/* columns rows colors chars-per-pixel */
"64 64 206 2 ",
"   c None",
".  c #0D0602",
"X  c #0F0802",
"o  c #130A04",
"O  c #1C0E06",
"+  c #190E0A",
"@  c #19140D",
"#  c #191308",
"$  c #1B1D19",
"%  c #1C1914",
"&  c #281407",
"*  c #341903",
"=  c #37180B",
"-  c #221213",
";  c #221D16",
":  c #241E18",
">  c #2A1A1B",
",  c #3B1E1A",
"<  c #1F231D",
"1  c #2C2209",
"2  c #342C0B",
"3  c #3D2E0A",
"4  c #372508",
"5  c #3D350D",
"6  c #24221D",
"7  c #3F201D",
"8  c #232720",
"9  c #252921",
"0  c #2B2B28",
"q  c #34322C",
"w  c #3C3A35",
"e  c #342C2A",
"r  c #42380E",
"t  c #40211E",
"y  c #592C1A",
"u  c #532A0A",
"i  c #602C06",
"p  c #6A341A",
"a  c #763916",
"s  c #793D19",
"d  c #713505",
"f  c #472A27",
"g  c #4E322E",
"h  c #513632",
"j  c #4F3C34",
"k  c #603E24",
"l  c #723A22",
"z  c #564A13",
"x  c #544D13",
"c  c #754C1E",
"v  c #76441C",
"b  c #685A16",
"n  c #765A16",
"m  c #6B6118",
"M  c #776D1B",
"N  c #44443E",
"B  c #704825",
"V  c #2B3D41",
"C  c #2E4044",
"Z  c #384E4E",
"A  c #3D5D68",
"S  c #3F6471",
"D  c #484944",
"F  c #4D4847",
"G  c #504548",
"H  c #585857",
"J  c #4B5752",
"K  c #4A655D",
"L  c #48645D",
"P  c #63635E",
"I  c #695C60",
"U  c #42626C",
"Y  c #456975",
"T  c #456A76",
"R  c #4C727A",
"E  c #51757C",
"W  c #536B67",
"Q  c #636661",
"!  c #686A67",
"~  c #796E72",
"^  c #667674",
"/  c #767676",
"(  c #6C706C",
")  c #813C02",
"_  c #823E25",
"`  c #944811",
"'  c #925708",
"]  c #BF5C0D",
"[  c #B0560E",
"{  c #A95516",
"}  c #B95917",
"|  c #A24C10",
" . c #8C6C1A",
".. c #87671A",
"X. c #956E1A",
"o. c #847A1E",
"O. c #947417",
"+. c #B56218",
"@. c #A47D1F",
"#. c #89492B",
"$. c #994B2D",
"%. c #924529",
"&. c #9A5432",
"*. c #995733",
"=. c #A87D2C",
"-. c #BE7829",
";. c #C25C13",
":. c #C8630D",
">. c #DC6B0B",
",. c #C2651A",
"<. c #C07519",
"1. c #E36E0C",
"2. c #E67B12",
"3. c #C57628",
"4. c #7A817E",
"5. c #978A1D",
"6. c #8C8320",
"7. c #948B22",
"8. c #998F23",
"9. c #9D8721",
"0. c #9C9224",
"q. c #A98126",
"w. c #B28926",
"e. c #A39825",
"r. c #BB8631",
"t. c #B6AA29",
"y. c #BAB12B",
"u. c #ACA127",
"i. c #E78A17",
"p. c #E89818",
"a. c #F99918",
"s. c #FFB01F",
"d. c #C48528",
"f. c #C49A26",
"g. c #C49425",
"h. c #C78932",
"j. c #CC9035",
"k. c #DB9820",
"l. c #E99A22",
"z. c #D0A426",
"x. c #C8B82D",
"c. c #D7AA2A",
"v. c #EAA729",
"b. c #F6AA25",
"n. c #E5B32D",
"m. c #EAB82C",
"M. c #F7BB2C",
"N. c #ECB932",
"B. c #ECB530",
"V. c #D08D1C",
"C. c #D5CA31",
"Z. c #D9CB32",
"A. c #D1C530",
"S. c #FDC32E",
"D. c #E6C130",
"F. c #FECB32",
"G. c #F9C431",
"H. c #E9DC36",
"J. c #E4D835",
"K. c #FFD434",
"L. c #FFDC36",
"P. c #FFD52F",
"I. c #EBE037",
"U. c #FEE438",
"Y. c #FEEC3A",
"T. c #F9E738",
"R. c #FFF33B",
"E. c #FFFA3D",
"W. c #537981",
"Q. c #5C8588",
"!. c #648A8C",
"~. c #7E8582",
"^. c #6D9996",
"/. c #739E94",
"(. c #749A9B",
"). c #678B90",
"_. c #76A196",
"`. c #7AA8A2",
"'. c #7FB1A6",
"]. c #828986",
"[. c #838582",
"{. c #8D9592",
"}. c #969C99",
"|. c #9AA29E",
" X c #9EA6A3",
".X c #85B5AA",
"XX c #8CB6AF",
"oX c #8EBBB1",
"OX c #97B9B4",
"+X c #87ACA3",
"@X c #A4AAA8",
"#X c #ABB2AF",
"$X c #A8BAB5",
"%X c #B6BCB9",
"&X c #99C3BA",
"*X c #A5C5BD",
"=X c #B8C1BD",
"-X c #A7CBC3",
";X c #B2D4CC",
":X c #BCDAD3",
">X c #B8D7D0",
",X c #BFC3C2",
"<X c #C3CDCA",
"1X c #CDD6D3",
"2X c #C2E3DC",
"3X c #DBE6E3",
/* pixels */
"                                                                                                                                ",
"                                                                                                                                ",
"                                                                                                                                ",
"                                                                                                                                ",
"                                                                                                                                ",
"                                                                                                                                ",
"                                                                                                                                ",
"                                                                                                                                ",
"                                                                                                                                ",
"                                                                                                                                ",
"                                                                                                                                ",
"                                                                                                                                ",
"                                                                                                                                ",
"                                                                                                                                ",
"                                                                                                                                ",
"                                                                                                                                ",
"                                                                                                                                ",
"                                                                                                                                ",
"                                                                                                                                ",
"                                            X X X X X X X X X X X X X X X X X X X X                                             ",
"                                          5 5 5 5 5 5 5 5 5 5 5 5 5 5 5 5 5 5 5 5 5 2                                           ",
"                                        5 M 7.0.8.7.7.7.7.7.7.7.7.7.7.7.7.8.0.0.8.6.m 2                                         ",
"                                      X 5 o.A.H.H.H.H.H.H.H.H.H.H.H.H.H.H.J.J.H.I.C.6.5 X                                       ",
"                                      X 1 m u.Z.T.E.E.E.E.E.E.R.R.Y.Y.Y.U.Z.x.C.T.I.8.5 X                                       ",
"                                      o # 2 x 6.C.E.E.E.R.E.R.Y.U.L.L.L.D.9.m 6.C.H.0.5 X                                       ",
"                                      o o # 2 b u.J.Y.R.R.R.R.U.K.G.G.m.f.n r m x.J.0.5 X                                       ",
"                                      X & r b M 6.e.x.I.R.E.R.U.K.N.z.q. .n n 9.Z.J.8.5 X                                       ",
"                                      X 2 o.y.e.b x 6.Z.R.E.R.Y.K.m.@.z z ..f.D.U.H.7.5 X                                       ",
"                                    0 + 5 0.J.y.x 1 m x.Y.R.Y.U.K.n. .4 4  .n.L.R.H.7.5 + 0                                     ",
"                                  $XH 6 5 e.I.y.x & b x.L.U.L.K.K.n...1 1  .m.U.R.I.7.5 6 H $X                                  ",
"                                2X*X^ 0 5 5.J.y.x 4 n z.F.F.F.F.F.n.X.3 3 X.n.L.Y.H.5.5 0 ^ *X2X                                ",
"                              :X;XOX^ 0 3 O.n.z. .b X.k.b.M.S.F.F.N.w.n n w.N.K.P.m.O.3 0 ^ OX;X:X                              ",
"                            :X;X-X+XW 9 4 ' i.p.k.w.V.i.a.b.S.F.F.G.n.f.f.n.S.S.b.i.' 4 9 W +X-X;X:X                            ",
"                          >X;X-X&X_.L 8 * ) :.i.v.v.l.2.2.l.B.N.N.B.n.n.n.N.B.v.i.:.) * 8 K _.&X-X;X;X                          ",
"                        ;X-X*X&XoX/.L 8 & i ` +.3.h.3.,.} 3.d.r.=.=.=.q.w.r.h.-.{ ` i & 8 L /.oX&X&XXX).                        ",
"                      :X;X&XXX.X.X/.K 8 O = y l #.*.&.$.$.$.&.#.B k k k B #.&.#.l y = O 8 K /..XoX.X^.W.T                       ",
"                      :X;X*XoX.X.X_.K 8 O = y l #.$.$.&.*.*.*.#.l p y y p _ %.#.l y = O 8 K /.'.`.^.Q.R T                       ",
"                      :X>X;X-X&XoX_.K 8 & i ` [ } ,.3.h.j.j.h.3.+.| | | { } ;.} [ ` i & 8 K _.`.^.Q.E R T                       ",
"                      :X>X>X;X-XoX/.L 8 * ) :.1.1.1.i.v.B.N.B.l.i.>.>.>.>.>.1.1.1.:.) * 8 K /.(.Q.R T T T                       ",
"                      :X;X-XOXXX`.!.Z < * d [ :.;.+.<.d.g.f.g.d.<.] ] ] ] ] ] ;.:.[ d * 6 J !.).W.T Y T T                       ",
"                      :X-XXX(.!.Q.R Z $ & u p s s s v c c c c v s a a a a a s s s p u & $ Z R W.R T Y T T                       ",
"                      :X-X(.E T T U C $ O & , 7 7 t f g h h h g g f f f f f 7 7 t , & O $ C U R T T T T T                       ",
"                        OX).T S Y A V % o + - - - > j I ~ ~ ~ ! H G G G j e > - - - + o % V A T T T T T                         ",
"                          W.T Y           o + o o : H }.%X,X%X@X[.( ! ! H w % o o + o           T T T                           ",
"                            T T             o X . ; Q %X3X3X1X=X|.].~.4.! w @ X X o             T T                             ",
"                                              . . ; ! =X3X3X<X%X@X}.{.].! w @ . .                                               ",
"                                                . ; P #X1X<X$X#X@X X{.~.Q w @ X                                                 ",
"                                                  ; H [.}.|.|. X X}.~.Q F q @                                                   ",
"                                                    q N H ( ].{.{.].Q w 0 ;                                                     ",
"                                                      + 6 D ! / / ! D 6 o                                                       ",
"                                                        @ q N D D N q %                                                         ",
"                                                          % : : : : ;                                                           ",
"                                                            o o o o                                                             ",
"                                                                                                                                ",
"                                                                                                                                ",
"                                                                                                                                ",
"                                                                                                                                ",
"                                                                                                                                ",
"                                                                                                                                ",
"                                                                                                                                ",
"                                                                                                                                ",
"                                                                                                                                ",
"                                                                                                                                ",
"                                                                                                                                "
};