/* XPM */
static char *am1av_l92dz[] = {
/* columns rows colors chars-per-pixel */
"64 64 192 2 ",
"   c None",
".  c #0E0702",
"X  c #0E0802",
"o  c #110A02",
"O  c #150D08",
"+  c #180D08",
"@  c #1E1107",
"#  c #1E130C",
"$  c #1B1C1A",
"%  c #121618",
"&  c #2B1606",
"*  c #241707",
"=  c #341B05",
"-  c #231213",
";  c #2B1712",
":  c #391D10",
">  c #3B1E1A",
",  c #2D2408",
"<  c #342C0A",
"1  c #3E2D0A",
"2  c #372605",
"3  c #3D350D",
"4  c #21241F",
"5  c #3F211D",
"6  c #1F2E36",
"7  c #232620",
"8  c #272923",
"9  c #343732",
"0  c #49250F",
"q  c #5C2A0A",
"w  c #42380D",
"e  c #40211D",
"r  c #5A2D1A",
"t  c #572B1A",
"y  c #61300B",
"u  c #71380A",
"i  c #6A341A",
"p  c #793C19",
"a  c #5C3C23",
"s  c #723A22",
"d  c #603E24",
"f  c #544912",
"g  c #5D5415",
"h  c #4D4812",
"j  c #74460B",
"k  c #79451E",
"l  c #6A5C14",
"z  c #685A16",
"x  c #755C17",
"c  c #6B6216",
"v  c #75671A",
"b  c #7D741C",
"n  c #754925",
"m  c #7B5526",
"M  c #6B4327",
"N  c #2A3C44",
"B  c #364B4F",
"V  c #3C5A65",
"C  c #445C59",
"Z  c #424641",
"A  c #4B645E",
"S  c #47656A",
"D  c #426673",
"F  c #456975",
"G  c #466C79",
"H  c #496D78",
"J  c #486C77",
"K  c #4D727C",
"L  c #51767F",
"P  c #557A7C",
"I  c #576C65",
"U  c #6A7976",
"Y  c #803F07",
"T  c #823E25",
"R  c #824006",
"E  c #935A0C",
"W  c #944811",
"Q  c #B85A0E",
"!  c #A95516",
"~  c #B85716",
"^  c #A24C10",
"/  c #8C6C1A",
"(  c #87691A",
")  c #85771B",
"_  c #967719",
"`  c #916E1B",
"'  c #BE6A0D",
"]  c #B56218",
"[  c #B07F1C",
"{  c #894C2D",
"}  c #884529",
"|  c #9A4B2D",
" . c #924529",
".. c #9A5331",
"X. c #9A5733",
"o. c #A77C2B",
"O. c #BD7929",
"+. c #C15E0E",
"@. c #C15A19",
"#. c #C5600F",
"$. c #CB650B",
"%. c #DC6B0B",
"&. c #C4621B",
"*. c #C2731A",
"=. c #E36E0C",
"-. c #E37812",
";. c #C67628",
":. c #978C1F",
">. c #8E821C",
",. c #8D8220",
"<. c #948B22",
"1. c #9A8D23",
"2. c #9D8621",
"3. c #9D9122",
"4. c #A39824",
"5. c #BC8631",
"6. c #ACA127",
"7. c #B6AA29",
"8. c #BBB12B",
"9. c #DA941D",
"0. c #CE951F",
"q. c #E68918",
"w. c #E89718",
"e. c #C78829",
"r. c #C4992A",
"t. c #C68731",
"y. c #CC9035",
"u. c #E89922",
"i. c #C9A629",
"p. c #D3A827",
"a. c #C6B72D",
"s. c #D6B02B",
"d. c #EAA428",
"f. c #ECB92D",
"g. c #E9B52C",
"h. c #FABA28",
"j. c #EAB630",
"k. c #ECB932",
"l. c #F0A727",
"z. c #D5CA31",
"x. c #D7CA31",
"c. c #D2C22F",
"v. c #FFD52F",
"b. c #E4C530",
"n. c #FCC531",
"m. c #FECC32",
"M. c #F4CB32",
"N. c #E4D634",
"B. c #E9DC36",
"V. c #E6D835",
"C. c #FFD534",
"Z. c #FEDC36",
"A. c #FFC32B",
"S. c #ECE037",
"D. c #FFE037",
"F. c #FEE438",
"G. c #FEEC3A",
"H. c #F4E839",
"J. c #FFF33B",
"K. c #FFFC3E",
"L. c #557C83",
"P. c #597C85",
"I. c #5B8287",
"U. c #638C8D",
"Y. c #688788",
"T. c #67918C",
"R. c #6C8E94",
"E. c #699593",
"W. c #739E94",
"Q. c #729A9A",
"!. c #76A39B",
"~. c #7D9FA1",
"^. c #7BACA3",
"/. c #7EA5A2",
"(. c #7FB1A6",
"). c #899C99",
"_. c #85ACA7",
"`. c #87B5AB",
"'. c #8DBBB1",
"]. c #93BDB4",
"[. c #96B6B3",
"{. c #A0BEB8",
"}. c #99C3B9",
"|. c #A6C5BF",
" X c #ABCCC5",
".X c #A9CAC4",
"XX c #ADD0C8",
"oX c #B4D4CD",
"OX c #BCDAD3",
"+X c #B8D7D0",
"@X c #C0DED6",
"#X c #C4E1D9",
/* pixels */
"                                                                                                                                ",
"                                                                                                                                ",
"                                                                                                                                ",
"                                                                                                                                ",
"                                                                                                                                ",
"                                                                                                                                ",
"                                                                                                                                ",
"                                                                                                                                ",
"                                                                                                                                ",
"                                                                                                                                ",
"                                                                                                                                ",
"                                                                                                                                ",
"                                                                                                                                ",
"                                                                                                                                ",
"                                                                                                                                ",
"                                                                                                                                ",
"                                                                                                                                ",
"                                                                                                                                ",
"                                                                                                                                ",
"                            OXOXOXOX        . . . . . . . . . . . . . . . . . . . .         OXOXOXOX                            ",
"                          OXOXOXoX X{.    2 3 3 3 3 3 3 3 3 3 3 3 3 3 3 3 3 3 3 3 3 2     .X+XOXoXXX|.                          ",
"                        OXOXOXoX.X[.Y.9 < l ,.1.3.3.1.<.<.<.<.<.<.<.<.<.<.<.<.<.3.<.c < Z ).oX+X X]./.I.                        ",
"                      OXOXOXOXXX}.!.S 8 3 >.x.S.B.N.V.B.B.B.B.B.B.B.B.B.B.B.B.B.B.c.) 3 9 U |.oX}._.E.L G                       ",
"                    OXOXOXoX X}.'.W.C 4 3 :.S.H.z.a.x.G.K.K.K.J.G.G.G.G.J.K.K.H.x.6.l , 8 U [..X].!.U.K G D                     ",
"                  OXOXOXoX.X}.'.`.W.C 4 3 3.B.z.,.c 3.B.K.K.J.G.D.Z.C.C.D.J.J.x.,.f , @ 8 I _.].`.^.T.K G D G                   ",
"                OXOXOXOXoX]._.^.(.W.A 7 3 3.N.a.c w v a.S.J.G.F.C.n.n.n.m.Z.N.7.l < o o 8 A !.`.^.!.U.K G D G G                 ",
"                OXOX@X@XXX`.E.E.^.!.A 7 3 :.V.x.2.x v ,.6.z.H.G.C.n.n.n.f.i.4.,.b l w * 7 A W.^.Q.U.L.K G G G G                 ",
"                OXOX@XOX.X~.I.I.!.W.A 7 3 :.B.F.b.r.( f g 4.S.G.C.n.n.n.p./ f c 4.8.b < 7 A W.!.U.L J J G G G G                 ",
"                OXOXoX X[.R.K L.E.T.C 4 3 :.B.J.Z.g./ < < ,.V.F.C.n.m.m.i.z * f 8.V.4.3 4 C T.E.L.G D D G G G G                 ",
"                #X+X.X_.R.L.J K L.P B $ 3 <.S.J.F.f./ , , ) b.Z.m.m.C.Z.a.z @ h 8.S.4.w $ B P I.K F D D G G G G                 ",
"                OXXX`.U.K G G J K S N $ 3 :.B.G.Z.g.` 1 1 ` g.m.m.m.Z.G.c.v < g 8.N.3.3 $ N S K J G F G F F F F                 ",
"                [.[.Q.L D D G G G V 6 % 1 _ f.v.C.f.[ j j [ f.m.m.m.Z.F.b.2.z / p.g._ 1 % 6 V G G G G G F F F F                 ",
"                R.U.P.J D D G G J   % O 2 E w.h.A.h.9.' ' 9.h.m.m.m.C.C.M.s.r.0.w.q.E 2 O %   J G G G G G G F F                 ",
"                J J G G G G G G       X = R $.q.l.g.u.-.-.u.g.k.k.j.j.j.k.k.j.d.q.$.R = X       J G G G G G F F                 ",
"                D D D G G G G         X & q W ! O.t.;.&.&.;.t.5.o.o.o.o.o.5.t.;.] W q & X         G G G G G G F                 ",
"                G G G G G G           o @ : t s { ....| | ....{ M d a a M { ..{ s r : @ o           G G G G G G                 ",
"                G G G G G             o @ : r s } | | ..X.X...{ s i r r i T  .} s r : @ o             G G G G G                 ",
"                    G G G             X & y W ~ ~ &.;.t.y.y.t.;.] ^ ^ ^ ! ~ @.~ ~ W y & X             G G G                     ",
"                    G G G             X = Y $.=.=.-.q.d.j.k.j.u.q.%.%.%.%.%.=.=.=.$.Y = X             G G G                     ",
"                      G G             X = u Q +.+.#.*.e.r.r.r.e.*.#.+.+.+.Q Q +.#.Q u = X             G G                       ",
"                                      o * 0 i p p p k m m m m n k p p p p p p p p i 0 * o                                       ",
"                                      o + ; > e e 5 5 5 5 5 5 5 5 5 5 5 5 5 5 e e > ; + o                                       ",
"                                        + # - - - - - - - - - - - - - - - - - - - - # +                                         ",
"                                          + + + + + + + + + + + + + + + + + + + + + +                                           ",
"                                            o o o o o o o o o o o o o o o o o o o o                                             ",
"                                                                                                                                ",
"                                                                                                                                ",
"                                                                                                                                ",
"                                                                                                                                ",
"                                                                                                                                ",
"                                                                                                                                ",
"                                                                                                                                ",
"                                                                                                                                ",
"                                                                                                                                ",
"                                                                                                                                ",
"                                                                                                                                ",
"                                                                                                                                ",
"                                                                                                                                ",
"                                                                                                                                ",
"                                                                                                                                ",
"                                                                                                                                ",
"                                                                                                                                ",
"                                                                                                                                ",
"                                                                                                                                "
};
