/* XPM */
static char *a74kg_pvort[] = {
/* columns rows colors chars-per-pixel */
"64 64 164 2 ",
"   c None",
".  c #050403",
"X  c #080602",
"o  c #0C0A01",
"O  c #130A04",
"+  c #1B0B07",
"@  c #1C0A08",
"#  c #230F06",
"$  c #240A0C",
"%  c #2C0B0F",
"&  c #330F0E",
"*  c #231304",
"=  c #2B1604",
"-  c #2F1804",
";  c #301904",
":  c #3A1E04",
">  c #35100E",
",  c #3F180C",
"<  c #2C0910",
"1  c #320A12",
"2  c #3D0C15",
"3  c #3D0918",
"4  c #3D2004",
"5  c #41190C",
"6  c #400C17",
"7  c #4A0D17",
"8  c #440B1A",
"9  c #4D0C1C",
"0  c #500D1D",
"q  c #4E1216",
"w  c #5F101D",
"e  c #63131C",
"r  c #68191E",
"t  c #76161E",
"y  c #7B1A1D",
"u  c #4A2504",
"i  c #4F2804",
"p  c #4D2209",
"a  c #512A04",
"s  c #5C2E05",
"d  c #613104",
"f  c #723706",
"g  c #733905",
"h  c #7B350D",
"j  c #642312",
"k  c #540A23",
"l  c #5B0C23",
"z  c #630D26",
"x  c #6A0F27",
"c  c #631020",
"v  c #6E1125",
"b  c #731424",
"n  c #791623",
"m  c #741922",
"M  c #7C1B20",
"N  c #8D1E1F",
"B  c #901F1F",
"V  c #862D19",
"C  c #94221F",
"Z  c #9B231F",
"A  c #952D1E",
"S  c #9D281E",
"D  c #A3261D",
"F  c #A62A1D",
"G  c #AC291C",
"H  c #B42C1B",
"J  c #B82E1B",
"K  c #A0361B",
"L  c #A9331C",
"P  c #B4311A",
"I  c #BB3419",
"U  c #B33E1A",
"Y  c #BE3818",
"T  c #811723",
"R  c #841923",
"E  c #891C21",
"W  c #921F20",
"Q  c #8C2321",
"!  c #932020",
"~  c #9A2220",
"^  c #C23D17",
"/  c #C03718",
"(  c #C33B18",
")  c #8E4606",
"_  c #8F4805",
"`  c #8F4109",
"'  c #924706",
"]  c #974B06",
"[  c #9C4E06",
"{  c #914508",
"}  c #9F5005",
"|  c #A34E07",
" . c #A34C08",
".. c #AE4B0B",
"X. c #B14C0B",
"o. c #BB4A0F",
"O. c #A45106",
"+. c #BA5B07",
"@. c #A64512",
"#. c #B84815",
"$. c #B64019",
"%. c #C05F06",
"&. c #C9530E",
"*. c #C15A0B",
"=. c #CE5F0A",
"-. c #D25A0E",
";. c #DD5D0F",
":. c #C54216",
">. c #C94515",
",. c #CC4A13",
"<. c #D14C13",
"1. c #C25113",
"2. c #D55311",
"3. c #DB5710",
"4. c #D25812",
"5. c #D95C10",
"6. c #E15E0F",
"7. c #E25D10",
"8. c #CE600A",
"9. c #D16607",
"0. c #D56807",
"q. c #D76907",
"w. c #D26906",
"e. c #D86C07",
"r. c #D06508",
"t. c #DE670C",
"y. c #DB6B08",
"u. c #E1630D",
"i. c #E0620D",
"p. c #E0610D",
"a. c #E5620E",
"s. c #E6630E",
"d. c #E5600F",
"f. c #E76B0B",
"g. c #E96C0A",
"h. c #EA6D0A",
"j. c #EB6E0A",
"k. c #EE6D0B",
"l. c #ED6A0C",
"z. c #EE6A0D",
"x. c #EF6B0C",
"c. c #EC690D",
"v. c #EA6D0C",
"b. c #E86B0B",
"n. c #F46C0D",
"m. c #E47007",
"M. c #EB7407",
"N. c #ED7308",
"B. c #ED7208",
"V. c #EE7308",
"C. c #EF710A",
"Z. c #ED7109",
"A. c #EF7508",
"S. c #F1720A",
"D. c #F6730A",
"F. c #F27409",
"G. c #F37409",
"H. c #F07408",
"J. c #F57609",
"K. c #F67709",
"L. c #F67609",
"P. c #F5740A",
"I. c #F57509",
"U. c #F9750A",
/* pixels */
"                                                                                                                                ",
"                                                                                                                                ",
"                                                                                                                                ",
"                                                                                                                                ",
"                                                                                                                                ",
"                                                                                                                                ",
"                                                                                                                                ",
"                                                                                                                                ",
"                                                                                                                                ",
"                                                                                                                                ",
"                                                                                                                                ",
"                                                                                                                                ",
"                                                                                                                                ",
"                                                                                                                                ",
"                                                                                                                                ",
"                                                                                                                                ",
"                                          . . . . . .                     . . . . . .                                           ",
"                                        O O O O O O O O                 O O O O O O O O                                         ",
"                                        = - - ; ; - - -                 - - - ; ; - - =                                         ",
"                                      : i s d d d d s a 4             4 a s d d d d s i :                                       ",
"                                  . * u f ) [ O.O.[ _ g i * . . . . * i g ' [ O.O.[ ) f u * .                                   ",
"                                . O ; s ) +.9.y.y.9.+.' s ; O . . O - s ' +.9.y.y.9.+.) s ; O .                                 ",
"                                * ; u g O.0.V.U.P.g.8. .f u - * * ; u f  .8.g.K.U.V.0.O.g u ; *                                 ",
"                              : u s g ] %.m.K.U.n.a.-.X.` f d s s d f ` X.-.a.n.U.K.m.%.] g s u :                               ",
"                          O = i f ) O.%.e.M.F.z.7.2.,.o... .[ [ [ [ | ..o.,.2.7.z.F.M.e.%.O.) f i = O                           ",
"                        . O - s ) +.0.m.M.V.g.;.<.:.^ :.&.8.9.w.w.r.=.&.:.^ :.<.;.g.V.M.m.0.+.) s - O .                         ",
"                        . O - d [ 9.V.K.F.g.p.2.:.I I >.;.f.V.V.V.g.p.2.:.I I :.2.p.g.F.K.V.9.[ d - O .                         ",
"                        . O - d [ 0.F.P.z.;.2.>.Y P I >.;.V.K.K.k.a.3.,.( P P Y >.3.;.z.P.F.0.[ d - O .                         ",
"                        . O ; d [ 0.V.z.7.,.:.I P J I ,.6.k.F.k.6.2.>.( I J J P ( >.<.7.z.V.0.[ d - O .                         ",
"                        . O - d [ 9.g.a.2.:.I J J J I ,.;.b.g.p.2.:.I P J J J J P I :.2.a.g.9.[ d - O .                         ",
"                        . O ; d [ 9.g.a.2.:.I P J J I >.3.p.p.3.>.I J H H J J H H J Y <.6.b.9.[ d ; O .                         ",
"                        . O ; d } 0.V.z.6.<.:.( I P P ^ ,.3.3.,.^ P J H H J J H H J I <.a.g.0.} d ; O .                         ",
"                        . O ; d } 0.F.P.z.t.3.,.^ P P I ^ :.:.^ I P J H J J J H H J I <.a.g.0.O.d ; O .                         ",
"                        . O - d [ 9.V.K.F.g.p.2.:.I J J P I I P P J J J J J J H H J I ,.6.f.r.[ d ; O .                         ",
"                        . O = s ` *.t.g.g.f.p.3.>.I J H J J H H G G G G H H H H G G P :.2.-.*.{ s = O .                         ",
"                        X O = p h @.1.4.5.;.3.<.:.I J H H H G D S Z Z D G H H G D Z S L $.#.@.h p = O X                         ",
"                        X O # , j V K U :.>.>.:.( I J J J H G Z W R R W D G G D W E R Q A A V j 5 * O X                         ",
"                        X O @ & q r M C F P I I P J J J J J G Z R n n E Z G G S E n b b m m r q > @ O X                         ",
"                        o O @ % 2 0 c n N D G G G G G H H H G Z R n n E S G G Z R v z l l l 0 2 % @ O o                         ",
"                          O @ $ < 3 9 w t E W ~ ~ C Z D G H G D W E E C D G G Z R v l k 9 8 3 1 $ + O                           ",
"                              @ $ < 1 7 e n T T R R E C D G H G D Z Z D G H G ~ R v l 9 3 1 % $ @                               ",
"                                + @ $ 2 9 c v v v v n E Z G H H G G G G H H G ~ R v l 8 1 $ @ +                                 ",
"                                o O @ % 2 9 l l l z v R Z G H J H G G G G G S N n c 0 2 % @ O o                                 ",
"                                  o + $ 1 2 8 9 k l v R ~ G H G F S Z Z ~ ~ N y e 9 2 1 $ + o                                   ",
"                                      @ $ % 1 3 9 l v R ~ G H G Z E R R R R n e q 2 % $ @                                       ",
"                                        + @ $ 1 8 l v R ~ G G S E n v v v v c 9 2 $ @ +                                         ",
"                                        o O @ % 2 0 c n B S D ! R v z l l l 9 2 % @ O o                                         ",
"                                          o + $ 1 2 9 e y N W E n x l k 9 8 2 1 $ + o                                           ",
"                                              @ $ % 2 q e n M n b x l 9 3 1 % $ @                                               ",
"                                                + @ $ 2 9 c v v x z l 8 1 $ @ +                                                 ",
"                                                o O @ % 2 9 l l l l 9 2 % @ O o                                                 ",
"                                                  o + $ 1 2 6 8 8 8 2 1 $ + o                                                   ",
"                                                      @ $ % < < < % % % $                                                       ",
"                                                        + @ @ @ @ @ @ +                                                         ",
"                                                        O O O O O O O O                                                         ",
"                                                          o o o o o o                                                           ",
"                                                                                                                                ",
"                                                                                                                                ",
"                                                                                                                                ",
"                                                                                                                                ",
"                                                                                                                                ",
"                                                                                                                                ",
"                                                                                                                                ",
"                                                                                                                                "
};
