/* XPM */
static char *abkh2_525g8[] = {
/* columns rows colors chars-per-pixel */
"64 64 185 2 ",
"   c None",
".  c #030302",
"X  c #090401",
"o  c #0E0902",
"O  c #140B05",
"+  c #190D04",
"@  c #1E0A09",
"#  c #180403",
"$  c #171208",
"%  c #1B140B",
"&  c #1E180F",
"*  c #1F1910",
"=  c #22060A",
"-  c #230A0B",
";  c #2B0A0E",
":  c #27050A",
">  c #2B1604",
",  c #21190F",
"<  c #271506",
"1  c #361C04",
"2  c #3B1E04",
"3  c #301607",
"4  c #2E0B10",
"5  c #350B12",
"6  c #3C0B16",
"7  c #3C0918",
"8  c #231C11",
"9  c #281812",
"0  c #3C1218",
"q  c #3E2004",
"w  c #2D251C",
"e  c #2E291A",
"r  c #292117",
"t  c #342C1E",
"y  c #35201D",
"u  c #372F20",
"i  c #3B3224",
"p  c #450718",
"a  c #450919",
"s  c #4A0B1B",
"d  c #400B17",
"f  c #44151D",
"g  c #4B1415",
"h  c #741C1F",
"j  c #4C2604",
"k  c #472404",
"l  c #5D2E05",
"z  c #5E3004",
"x  c #6B2D0D",
"c  c #712F0E",
"v  c #6B3505",
"b  c #613005",
"n  c #7D3E05",
"m  c #560D21",
"M  c #5C0C25",
"N  c #630D26",
"B  c #690F26",
"V  c #660D28",
"C  c #690D29",
"Z  c #6C1125",
"A  c #741424",
"S  c #7B1624",
"D  c #7B1A21",
"F  c #453D2A",
"G  c #483F2C",
"H  c #413B27",
"J  c #50332F",
"K  c #49402E",
"L  c #4D4531",
"P  c #514633",
"I  c #534A35",
"U  c #564C39",
"Y  c #594F3F",
"T  c #5B523D",
"R  c #685C4F",
"E  c #6B6047",
"W  c #6F644C",
"Q  c #71664E",
"!  c #74694E",
"~  c #6F6557",
"^  c #736857",
"/  c #7E7355",
"(  c #7F725C",
")  c #7F7766",
"_  c #803F05",
"`  c #95211F",
"'  c #9D231E",
"]  c #A3261E",
"[  c #AB271D",
"{  c #AC2A1C",
"}  c #A7281D",
"|  c #B52D1B",
" . c #B92F1A",
".. c #B0261D",
"X. c #B6301A",
"o. c #BA3319",
"O. c #BE3918",
"+. c #B73E19",
"@. c #841922",
"#. c #8B1C21",
"$. c #801724",
"%. c #921F21",
"&. c #942220",
"*. c #C23D17",
"=. c #C03A18",
"-. c #864206",
";. c #914706",
":. c #934905",
">. c #9A4D06",
",. c #A35106",
"<. c #AA5406",
"1. c #B65907",
"2. c #BC5C07",
"3. c #A84115",
"4. c #C05E07",
"5. c #DC5C0F",
"6. c #C64216",
"7. c #C94515",
"8. c #CD4A13",
"9. c #D14E13",
"0. c #D45211",
"q. c #D95511",
"w. c #DA5910",
"e. c #E25F0F",
"r. c #DC6D07",
"t. c #DF610D",
"y. c #D76709",
"u. c #E2630D",
"i. c #E7690B",
"p. c #E26D08",
"a. c #E56F08",
"s. c #E96B0B",
"d. c #EA6D0A",
"f. c #EC6B0C",
"g. c #E76B0A",
"h. c #E77008",
"j. c #ED7209",
"k. c #EA7208",
"l. c #EB7407",
"z. c #F27707",
"x. c #F37807",
"c. c #F47A07",
"v. c #F07508",
"b. c #F27608",
"n. c #F17608",
"m. c #F67509",
"M. c #F2730A",
"N. c #F77808",
"B. c #F87A08",
"V. c #FC7C08",
"C. c #84795A",
"Z. c #897E5E",
"A. c #817559",
"S. c #8B7F62",
"D. c #857D6C",
"F. c #8D8164",
"G. c #968A68",
"H. c #9A8D6D",
"J. c #9D916D",
"K. c #9A8C72",
"L. c #A1956F",
"P. c #A29671",
"I. c #A59974",
"U. c #A69879",
"Y. c #AA9D79",
"T. c #A5997A",
"R. c #AFA27E",
"E. c #B0A27F",
"W. c #B2A385",
"Q. c #B6A884",
"!. c #BBAC8A",
"~. c #BFB08D",
"^. c #BAAC95",
"/. c #BEB19B",
"(. c #C0B08F",
"). c #C3B392",
"_. c #CCBC9A",
"`. c #CDC0AB",
"'. c #D2C3A4",
"]. c #D1C4AD",
"[. c #DED0B9",
"{. c #E4D5BA",
"}. c #E0D1B5",
"|. c #F5E6CB",
" X c #FBECD3",
/* pixels */
"                                                                                                                                ",
"                                                                                                                                ",
"                                                                                                                                ",
"                                                                                                                                ",
"                                                                                                                                ",
"                                                                                                                                ",
"                                                                                                                                ",
"                                    . . . . . . . . . . . . . . . . . . . . . . .                                               ",
"                                  + + + + + + + + + + + + + + + + + + + + + + + + +                                             ",
"                                  j l l l l l l l l l l z l l l l l l z z z z z l j >                                           ",
"                              X 1 _ 1.4.2.2.2.2.2.2.2.2.2.2.2.2.2.2.2.2.2.2.2.4.1.-.1 o                                         ",
"                              1 l <.k.B.b.b.b.b.b.b.j.d.s.d.b.b.b.b.d.s.i.i.d.m.k.<.b 1 <                                       ",
"                          o k n ,.y.x.V.B.N.N.N.B.N.d.w.q.u.M.B.B.M.u.q.9.9.w.f.b.y.<.n j O                                     ",
"                        o < v 2.h.j.j.j.j.b.b.b.z.b.u.7.=.0.d.x.x.d.0.O.| | *.q.d.b.k.4.v > O                                   ",
"                        j v >.r.m.i.5.u.j.b.b.b.x.b.t.6.o.8.d.c.c.d.9.o.[ [ X.6.q.f.m.r.,.v j 3                                 ",
"                    o 1 n 2.r.l.s.0.6.0.s.b.b.b.z.b.u.6.o.9.d.c.c.d.0.o.| | | o.*.0.s.l.r.2.-.1 o                               ",
"                    o 1 ;.a.m.s.5.*.o.8.i.z.z.b.x.b.u.6.o.7.5.i.i.5.8.o.o.O.O.o.| *.5.s.m.k.>.2 o                               ",
"                    o 1 ;.a.f.0.*.o.o.8.i.x.c.z.c.z.u.7.o.O.7.8.8.6.o.o.*.0.q.6.X.o.*.0.f.k.>.q o                               ",
"                    o 1 ;.r.u.7.o.| o.8.u.j.j.j.j.j.5.6.| | X.o.o.o.| | 6.5.u.8.o.| o.6.e.a.>.q o                               ",
"                    o 1 ;.a.f.q.6.o.o.*.0.5.5.w.5.w.9.*. .| | o.6.7.*.o.*.9.0.6.o.o.6.0.f.a.>.2 o                               ",
"                    o 1 ;.a.m.d.5.6.o.o.o.=.=.O.=.=.o.o.| | | *.5.u.8.o.| o.o.o.o.6.5.d.m.a.:.2 o                               ",
"                    o 1 ;.a.m.s.5.6.| [ ] ] { | { ] ] ] ] [ | *.w.5.8.o.| | | | | 6.5.s.m.h.>.2 o                               ",
"                    o 1 :.a.f.0.6.o.| ' @.@.] { ' @.S S @.' { o.6.7.*.o.| | | |  .o.6.0.f.h.>.q o                               ",
"                    o 1 -.y.w.*.| | | ` S S ' { ` A N N Z #.{  .o.| | | { { { { { | | =.w.y.;.1 o                               ",
"                    o > x 3.+.X.| | | ] #.%.] { #.Z M M B @.{  .| { ] &.#.%.%.#.%.' [ X.+.3.c 3 o                               ",
"                    o - g h &.{ | | | | { { | { %.Z M M Z #.{  . .{ %.A Z Z Z Z A #.] { &.D g - o                               ",
"                    o @ 7 M @.] | { ] ' ] { | | ' @.A A S ` {  . .{ #.Z M N N M B @.] { @.N 6 - O                               ",
"                    o @ 7 M @.[ { ` @.S S #.] | { ] ' ' ] { |  . .{ #.Z M N N M B @.] { @.N 6 @ o                               ",
"                    o @ 6 N @.] ' @.B N B A &.{ { { { { { { { { { ] @.Z N N N N B S ' ] @.B d - o                               ",
"                    o @ 6 N S @.@.A N M N Z $.#.%.%.%.%.%.%.%.%.%.@.S B V B B N B A @.@.S B d - o                               ",
"                    o @ 6 M B Z Z B N N N B Z Z Z Z Z Z Z Z Z Z Z Z B N N N N N N B Z Z B M d - o                               ",
"                    o @ 5 s m M N V N m s a p p a a a s s s a a a a s s s s s m N B N M m s 5 - o                               ",
"                        - ; 6 m V C N s ; = @ = = = = - - - = = = = - ; - - ; s N C V M d ; -                                   ",
"                        o O 4 s M M m f y w w w r 8 & + + % , 8 8 , % + + & 9 f m M M s 5 O o                                   ",
"                            - 5 5 5 0 J ^ D.D.) ^ T H 8 $ e L T T L e $ r F P J 0 5 5 5 -                                       ",
"                              + O # 9 R ^.[.{.].^.H.E t , K A.G.G./ K , u W / P , # + +                                         ",
"                              o o X & ~ ]. X|.{.'.Q.A.i , U H.Q.Q.H.U , i / F.I % o o o                                         ",
"                                  . * ~ `.|.{.'._.(.S.i 8 T U.).).U.T 8 i / Z.P & o                                             ",
"                                  X & R /.}.'.(.).).K.U i Q W._._.W.W i K / Z.P & X                                             ",
"                                  X & Y T.).!.E.!.).W.F.( K.!._._.!.F.E Q F.Z.L & X                                             ",
"                                  X % L S.I.P.P.W.!.~.!.Q.!.).).).!.Y.G.G.J.Z.L & X                                             ",
"                                  X % G C.L.L.P.Y.Q.!.~.~.!.!.!.!.Q.E.I.I.I.Z.L & X                                             ",
"                                  X % K C.P.P.L.P.I.Y.Y.Y.Y.Y.Y.Y.Y.I.P.I.I.Z.L % X                                             ",
"                                  X % F ! C.C.C.C.C.C.C.C.C.C.C.C.C.C.C.C.C.! G % X                                             ",
"                                      t F K K K K G G G G G G G G G K K K K F t                                                 ",
"                                        % % % % % % % % % % % % % % % % % % %                                                   ",
"                                        X X X X X X X X X X X X X X X X X X X                                                   ",
"                                                                                                                                ",
"                                                                                                                                ",
"                                                                                                                                ",
"                                                                                                                                ",
"                                                                                                                                ",
"                                                                                                                                ",
"                                                                                                                                ",
"                                                                                                                                ",
"                                                                                                                                ",
"                                                                                                                                ",
"                                                                                                                                ",
"                                                                                                                                ",
"                                                                                                                                ",
"                                                                                                                                ",
"                                                                                                                                ",
"                                                                                                                                ",
"                                                                                                                                "
};
