/* XPM */
static char *akm8r_b34sj[] = {
/* columns rows colors chars-per-pixel */
"64 64 201 2 ",
"   c None",
".  c #0D0602",
"X  c #0E0802",
"o  c #070000",
"O  c #120B05",
"+  c #170D08",
"@  c #190E08",
"#  c #1D1206",
"$  c #1B130E",
"%  c #14130F",
"&  c #191916",
"*  c #271506",
"=  c #341B04",
"-  c #381C0F",
";  c #221212",
":  c #271A16",
">  c #3A1E15",
",  c #1F211E",
"<  c #2C2209",
"1  c #342C0B",
"2  c #3E2E0A",
"3  c #372608",
"4  c #3D350D",
"5  c #26221C",
"6  c #3F201D",
"7  c #1E2D30",
"8  c #2B2924",
"9  c #2A2924",
"0  c #32302B",
"q  c #393732",
"w  c #2C2D2F",
"e  c #49250F",
"r  c #42370D",
"t  c #40211E",
"y  c #5A2D1A",
"u  c #572B1A",
"i  c #5A310B",
"p  c #61310B",
"a  c #71380A",
"s  c #6A341A",
"d  c #763916",
"f  c #783C18",
"g  c #482B27",
"h  c #4D312D",
"j  c #4D3938",
"k  c #56392A",
"l  c #603E24",
"z  c #723A22",
"x  c #564A13",
"c  c #544D13",
"v  c #76481D",
"b  c #685A16",
"n  c #765A16",
"m  c #6B6118",
"M  c #7D731A",
"N  c #71681A",
"B  c #46443E",
"V  c #744C23",
"C  c #714A24",
"Z  c #273A42",
"A  c #4A3E41",
"S  c #3A525A",
"D  c #3E5D67",
"F  c #484C4A",
"G  c #50524D",
"H  c #495555",
"J  c #595A56",
"K  c #534F4E",
"L  c #64595D",
"P  c #5F605A",
"I  c #405F6A",
"U  c #685D60",
"Y  c #5B6A6B",
"T  c #416573",
"R  c #466B76",
"E  c #486D79",
"W  c #4D737D",
"Q  c #496D76",
"!  c #676769",
"~  c #68716E",
"^  c #6D7876",
"/  c #737675",
"(  c #726D6D",
")  c #823F05",
"_  c #823E25",
"`  c #944811",
"'  c #945A09",
"]  c #BE5C0D",
"[  c #B0560E",
"{  c #A95516",
"}  c #B95917",
"|  c #A24C10",
" . c #8C6C1A",
".. c #87671A",
"X. c #956E1A",
"o. c #967518",
"O. c #897F1F",
"+. c #B76417",
"@. c #A47D1F",
"#. c #89492B",
"$. c #994B2D",
"%. c #924529",
"&. c #9A5432",
"*. c #995733",
"=. c #A87D2C",
"-. c #BE7829",
";. c #C25C13",
":. c #C8630D",
">. c #DC6B0B",
",. c #C3611D",
"<. c #C07519",
"1. c #E36E0C",
"2. c #E67B12",
"3. c #C57628",
"4. c #93891D",
"5. c #8C8320",
"6. c #948A22",
"7. c #998E23",
"8. c #9D8721",
"9. c #9C9122",
"0. c #A98126",
"q. c #B28926",
"w. c #A39924",
"e. c #BB8631",
"r. c #B6AA29",
"t. c #BAB12B",
"y. c #ACA127",
"u. c #E78918",
"i. c #E79517",
"p. c #F99918",
"a. c #FFB01F",
"s. c #C48528",
"d. c #C49A26",
"f. c #C59526",
"g. c #C78932",
"h. c #CC9035",
"j. c #DB9820",
"k. c #E99A22",
"l. c #D0A426",
"z. c #C8B82D",
"x. c #D7AA2A",
"c. c #EAA729",
"v. c #F6AA25",
"b. c #E5B32D",
"n. c #ECBA2E",
"m. c #E9B72B",
"M. c #F7BB2C",
"N. c #ECB932",
"B. c #ECB530",
"V. c #D08D1C",
"C. c #D5CA31",
"Z. c #D9CB32",
"A. c #D1C530",
"S. c #FDC32E",
"D. c #E6C130",
"F. c #FECB32",
"G. c #F9C431",
"H. c #E5D935",
"J. c #E9DC36",
"K. c #E3D634",
"L. c #FFD434",
"P. c #FFDC36",
"I. c #FFD52F",
"U. c #EBE037",
"Y. c #FEE438",
"T. c #FEEC3A",
"R. c #F9E738",
"E. c #FFF33B",
"W. c #FFFA3D",
"Q. c #547C81",
"!. c #5F7E84",
"~. c #5D8589",
"^. c #638B8E",
"/. c #7C8481",
"(. c #6A9793",
"). c #6B9894",
"_. c #759699",
"`. c #648D8F",
"'. c #76A29D",
"]. c #7AA4A1",
"[. c #858A87",
"{. c #8D9592",
"}. c #969896",
"|. c #97A09D",
" X c #86ABA7",
".X c #82B1A6",
"XX c #8DB8AF",
"oX c #95B9B3",
"OX c #95ABA9",
"+X c #A5ACA9",
"@X c #B0B6B4",
"#X c #9BC4BA",
"$X c #96C0B7",
"%X c #A7C5BD",
"&X c #AAC9C3",
"*X c #ADD1C9",
"=X c #B2D3CC",
"-X c #BCDAD3",
";X c #BFDFD8",
":X c #C0DDD6",
">X c #C2E1DA",
/* pixels */
"                                                                                                                                ",
"                                                                                                                                ",
"                                                                                                                                ",
"                                                                                                                                ",
"                                                                                                                                ",
"                                                                                                                                ",
"                                                                                                                                ",
"                                                                                                                                ",
"                                                                                                                                ",
"                                                                                                                                ",
"                                                                                                                                ",
"                                                                                                                                ",
"                                                                                                                                ",
"                                                                                                                                ",
"                                                                                                                                ",
"                                                                                                                                ",
"                                                                                                                                ",
"                                                                                                                                ",
"                                                                                                                                ",
"                                            . . . . . . . . . . . . . . . . . . . .                                             ",
"                                          4 4 4 4 4 4 4 4 4 4 4 4 4 4 4 4 4 4 4 4 4 1                                           ",
"                                        4 N 6.9.7.6.6.6.6.6.6.6.6.6.6.6.6.7.9.9.7.5.m 1                                         ",
"                -X-X-X                . 4 O.A.J.J.J.J.J.J.J.J.J.J.H.J.J.H.H.K.J.U.C.5.4 .                 -X-X-X                ",
"                -X-X-X                . < m y.Z.R.W.W.W.W.W.W.E.E.T.T.E.Y.Z.z.C.R.U.7.4 .                 -X-X-X                ",
"                -X-X-X-X-X            X # 1 c 5.C.W.W.W.E.W.E.T.Y.P.P.P.D.8.m 5.C.J.9.4 .             -X-X-X-X-X                ",
"                -X-X-X-X-X            + O # 1 b y.H.T.E.E.E.E.Y.L.G.G.n.d.n r m z.K.9.4 O             -X-X-X-X-X                ",
"                -X-X-X-X-X-X        G : * r b M 5.w.z.U.E.W.E.Y.L.n.l.0. .n n 8.Z.H.7.4 & F         -X-X-X-X:X:X                ",
"                -X-X-X-X-X-X-X>X>X%X~ 9 1 M t.w.b c 5.Z.E.W.E.T.L.n.@.x i ..d.D.Y.H.4.4 9 ~ %X>X>X-X-X-X-X-X-X-X                ",
"                -X-X=X=X=X=X=X=X*XoXY 9 4 9.H.t.c < m z.T.E.T.Y.L.b. .3 3  .b.P.E.J.4.4 0 ^ &X;X-X=X=X=X*X&X&X&X                ",
"                -X-X*X%X#X#X#XoX X).H 9 r w.U.t.c * b z.P.Y.P.L.L.b...< <  .n.Y.E.U.4.4 0 ^ &X-X*X#X#X#XoX X_._.                ",
"                -X=X&XXX.X.X.X'.^.Q Z & 4 9.K.t.c 3 n l.F.F.F.F.F.b.X.2 2 X.b.P.T.H.4.4 0 ^ %X*X$X.X.X.X'.`.Q.W                 ",
"                  =XoX'.(.(.(.~.Q.D Z & 2 o.m.l. .b X.j.v.M.S.F.F.n.q.n n q.n.L.I.m.o.2 9 Y  XXX].).(.(.`.Q.R                   ",
"                    _.~.Q.Q.Q.W W D Z & 3 ' i.i.j.f.V.u.p.v.S.F.F.G.b.d.d.b.S.S.v.i.' 3 5 S !.^.~.Q.Q.Q.Q.W                     ",
"                      E R R R E E I Z & = ) :.u.c.c.k.2.2.k.B.N.N.B.b.b.b.N.B.c.u.:.) = & Z I E E R R R R                       ",
"                        T T T R E D 7 % * i ` +.3.g.3.,.} 3.s.e.=.=.=.0.q.e.g.-.{ ` i * % 7 S T T T T T                         ",
"                                    & O # - u z #.&.&.$.$.$.&.#.C l l l C #.&.#.z u - # O &                                     ",
"                                      O # - y z #.$.$.&.*.*.&.#.z s y y s _ %.#.z y - # O                                       ",
"                                      X * p ` [ } ,.3.g.h.h.g.3.+.| | | { } ;.} [ ` p * X                                       ",
"                                      X = ) :.1.1.1.u.c.B.N.B.k.u.>.>.>.>.>.1.1.1.:.) = X                                       ",
"                                      X = a [ :.;.+.<.s.f.d.f.s.+.] ] ] ] ] ] ;.:.[ a = X                                       ",
"                                      O * e s f f f v v V V V v f d d d d d f f f s e * O                                       ",
"                                      O @ : > 6 t t g h h h h h h h g g g g 6 6 t > : @ O                                       ",
"                                        + $ ; ; ; : j ! / ( U L U L L K A 0 : ; ; ; $ +                                         ",
"                                          + + O O : J }.@X+X}.}.}.{.[./ J q $ O O @ +                                           ",
"                                            O . . : J }.@X@X+X+X+X|.[./ J q $ . . O                                             ",
"                                                    B P ( [.{.|.|.{.( F q 9                                                     ",
"                                                      : 0 G / /././ G 8 $                                                       ",
"                                                      o $ q G J J G q & .                                                       ",
"                                                          5 8 8 8 8 5                                                           ",
"                                                          + + + + + +                                                           ",
"                                                            . . . .                                                             ",
"                                                                                                                                ",
"                                                                                                                                ",
"                                                                                                                                ",
"                                                                                                                                ",
"                                                                                                                                ",
"                                                                                                                                ",
"                                                                                                                                ",
"                                                                                                                                ",
"                                                                                                                                ",
"                                                                                                                                ",
"                                                                                                                                ",
"                                                                                                                                ",
"                                                                                                                                "
};