/* XPM */
static char *a2orr_hk8ep[] = {
/* columns rows colors chars-per-pixel */
"64 64 192 2 ",
"   c None",
".  c #0E0702",
"X  c #0E0802",
"o  c #110A02",
"O  c #150D08",
"+  c #180D08",
"@  c #1E1207",
"#  c #1E100F",
"$  c #1B1C1A",
"%  c #121618",
"&  c #2B1606",
"*  c #231506",
"=  c #341B05",
"-  c #231213",
";  c #2B1712",
":  c #391D10",
">  c #3B1E1A",
",  c #2C2208",
"<  c #2E2506",
"1  c #3D2E0A",
"2  c #352808",
"3  c #3D350D",
"4  c #21241F",
"5  c #3F211D",
"6  c #1F2E36",
"7  c #232620",
"8  c #252822",
"9  c #2A2B26",
"0  c #343732",
"q  c #49250F",
"w  c #5C2A0A",
"e  c #42370C",
"r  c #40211D",
"t  c #5A2D1A",
"y  c #572B1A",
"u  c #553F10",
"i  c #61300B",
"p  c #71380A",
"a  c #6A341A",
"s  c #793C19",
"d  c #5C3D23",
"f  c #603E24",
"g  c #723A22",
"h  c #564A13",
"j  c #544D13",
"k  c #79451E",
"l  c #685E15",
"z  c #685615",
"x  c #765A16",
"c  c #6C6018",
"v  c #766C18",
"b  c #754925",
"n  c #7B5526",
"m  c #6C4427",
"M  c #2A3C44",
"N  c #364B4F",
"B  c #3C5A65",
"V  c #445C59",
"C  c #424641",
"Z  c #4B635D",
"A  c #47666A",
"S  c #426673",
"D  c #456975",
"F  c #466C79",
"G  c #496D78",
"H  c #486C77",
"J  c #4D727C",
"K  c #51767F",
"L  c #557A7C",
"P  c #526764",
"I  c #687876",
"U  c #803F07",
"Y  c #823E25",
"T  c #824006",
"R  c #935A0C",
"E  c #944811",
"W  c #B85A0E",
"Q  c #A95516",
"!  c #B95917",
"~  c #A24C10",
"^  c #8C6C1A",
"/  c #87671A",
"(  c #956E1A",
")  c #84791A",
"_  c #967619",
"`  c #B56218",
"'  c #A47D1F",
"]  c #894C2D",
"[  c #884529",
"{  c #994B2D",
"}  c #924529",
"|  c #9A5432",
" . c #995733",
".. c #A87D2C",
"X. c #BE7829",
"o. c #C15E0E",
"O. c #C15A19",
"+. c #C5600F",
"@. c #CB650B",
"#. c #DC6B0B",
"$. c #C26019",
"%. c #C2731A",
"&. c #E36E0C",
"*. c #E67B12",
"=. c #C57628",
"-. c #978C1F",
";. c #94881D",
":. c #8C8320",
">. c #948B22",
",. c #9B8B22",
"<. c #9C9122",
"1. c #A98126",
"2. c #B28926",
"3. c #A29824",
"4. c #BB8631",
"5. c #B6AA29",
"6. c #BBB12B",
"7. c #ACA127",
"8. c #D08D1C",
"9. c #E78A17",
"0. c #E89818",
"q. c #F99918",
"w. c #FFB01F",
"e. c #C6872A",
"r. c #C49A26",
"t. c #C79728",
"y. c #C78932",
"u. c #CC9035",
"i. c #DB9820",
"p. c #E99A22",
"a. c #D0A426",
"s. c #C8B82D",
"d. c #D7AA2A",
"f. c #EAA729",
"g. c #F6AA25",
"h. c #E5B32D",
"j. c #ECBA2E",
"k. c #E9B72B",
"l. c #F7BB2C",
"z. c #ECB530",
"x. c #ECB932",
"c. c #D5CA31",
"v. c #D9CB32",
"b. c #D1C530",
"n. c #FDC32E",
"m. c #FFD52F",
"M. c #E6C130",
"N. c #FECB32",
"B. c #F9C431",
"V. c #E5D935",
"C. c #E9DC36",
"Z. c #E3D634",
"A. c #FFD434",
"S. c #FFDC36",
"D. c #ECE037",
"F. c #FEE438",
"G. c #FEEC3A",
"H. c #F9E738",
"J. c #FFF33B",
"K. c #FFFA3D",
"L. c #557C83",
"P. c #597C85",
"I. c #5B8287",
"U. c #638C8D",
"Y. c #688788",
"T. c #67918C",
"R. c #6C8E94",
"E. c #699593",
"W. c #739E94",
"Q. c #729A9A",
"!. c #76A39B",
"~. c #7D9FA1",
"^. c #7BACA3",
"/. c #7EA5A2",
"(. c #7FB1A6",
"). c #8A9C99",
"_. c #85ACA7",
"`. c #87B5AB",
"'. c #8DBBB1",
"]. c #93BDB4",
"[. c #96B6B3",
"{. c #A0BEB8",
"}. c #99C3B9",
"|. c #A6C5BF",
" X c #ABCCC5",
".X c #A9CAC4",
"XX c #ADD0C8",
"oX c #B4D4CD",
"OX c #BCDAD3",
"+X c #B8D7D0",
"@X c #C0DED6",
"#X c #C4E1D9",
/* pixels */
"                                                                                                                                ",
"                                                                                                                                ",
"                                                                                                                                ",
"                                                                                                                                ",
"                                                                                                                                ",
"                                                                                                                                ",
"                                                                                                                                ",
"                                                                                                                                ",
"                                                                                                                                ",
"                                                                                                                                ",
"                                                                                                                                ",
"                                                                                                                                ",
"                                                                                                                                ",
"                                                                                                                                ",
"                                                                                                                                ",
"                                                                                                                                ",
"                                                                                                                                ",
"                                                                                                                                ",
"                                                                                                                                ",
"                            OXOXOXOX        . . . . . . . . . . . . . . . . . . . .         OXOXOXOX                            ",
"                          OXOXOXoX X{.    2 3 3 3 3 3 3 3 3 3 3 3 3 3 3 3 3 3 3 3 3 <     .X+XOXoXXX|.                          ",
"                        OXOXOXoX.X[.Y.0 1 c >.<.,.>.>.>.>.>.>.>.>.>.>.>.>.,.<.<.,.:.l 2 C ).oX+X X]./.I.                        ",
"                      OXOXOXOXXX}.!.P 8 3 ) b.C.C.C.C.C.C.C.C.C.C.C.C.C.C.V.Z.C.D.c.:.3 0 I |.oX}._.E.K D                       ",
"                    OXOXOXoX X}.'.W.V 4 < l 7.v.H.K.K.K.K.K.K.J.J.G.G.G.F.v.s.c.H.D.-.3 9 I [..X].!.U.J D S                     ",
"                  OXOXOXoX.X}.'.`.W.Z 7 @ < j :.c.K.K.K.J.K.J.G.F.S.S.S.M.,.c :.c.C.-.3 7 P _.].`.^.T.J D S D                   ",
"                OXOXOXOXoX]._.^.(.!.Z 8 o o 2 l 7.V.G.J.J.J.J.F.A.B.B.j.r.x e c s.Z.<.3 7 Z !.`.^.!.U.J D S D D                 ",
"                OXOX@X@XXX`.E.E.^.!.Z 8 * e l v :.3.s.D.J.K.J.F.A.j.a.1.^ x x ,.v.V.-.3 7 Z W.^.Q.U.L.J D D D D                 ",
"                OXOX@XOX.X~.I.I.!.W.Z 8 2 ) 6.3.l j :.v.J.K.J.G.A.j.' h u / r.M.F.C.-.3 7 Z W.!.U.K H H D D D D                 ",
"                OXOXoX X[.R.J L.E.T.V 4 3 3.V.6.j , c s.G.J.G.F.A.h.^ 2 2 ^ h.S.J.C.-.3 4 V T.E.L.D S D D D D D                 ",
"                #X+X.X_.R.L.H J I.L N $ e 3.D.6.j * z s.S.F.S.A.A.h./ , , ^ j.F.J.D.>.3 $ N L I.J D S D D D D D                 ",
"                OXXX`.U.J D D H J A M $ 3 <.Z.6.j 2 x a.N.N.N.N.N.h.( 1 1 ( h.S.G.C.-.3 $ M A J H D D D D D D D                 ",
"                [.[.Q.K S S D D F B 6 % 1 _ k.a.^ z ( i.g.l.n.N.N.j.2.x x 2.j.A.m.k._ 1 % 6 B F D D D D D D D D                 ",
"                R.U.P.H S S D F H   % O 2 R 9.0.i.2.8.9.q.g.n.N.N.B.h.r.r.h.n.n.g.9.R 2 O %   H F D D D D D D D                 ",
"                H H D D D D D H       X = T @.9.f.f.p.*.*.p.z.x.x.z.h.h.h.x.z.f.9.@.T = X       H D D D D D D D                 ",
"                S S S D D D D         X & w E ` =.y.=.$.! =.e.4.......1.2.4.y.X.Q E w & X         D D D D D D D                 ",
"                D D D D D D           o @ : y g ]  .| { { |  .] m f d f m ] | ] g y : @ o           D D D D D D                 ",
"                D D D D D             o @ : t g [ { | |  . . .] g a t t a Y } [ g t : @ o             D D D D D                 ",
"                    D D D             X & i E ! ! $.=.y.u.u.y.=.` ~ ~ ~ Q ! O.! ! E i & X             D D D                     ",
"                    D D D             X = U @.&.&.&.9.f.z.x.z.p.9.#.#.#.#.#.&.&.&.@.U = X             D D D                     ",
"                      D D             X = p W +.o.+.%.e.t.t.t.e.%.+.o.o.o.W W o.+.W p = X             D D                       ",
"                                      o * q a s s s k n n n n b k s s s s s s s s a q * o                                       ",
"                                      o + ; > r r 5 5 5 5 5 5 5 5 5 5 5 5 5 5 r r > ; + o                                       ",
"                                        + # - - - - - - - - - - - - - - - - - - - - # +                                         ",
"                                          + + + + + + + + + + + + + + + + + + + + + +                                           ",
"                                            o o o o o o o o o o o o o o o o o o o o                                             ",
"                                                                                                                                ",
"                                                                                                                                ",
"                                                                                                                                ",
"                                                                                                                                ",
"                                                                                                                                ",
"                                                                                                                                ",
"                                                                                                                                ",
"                                                                                                                                ",
"                                                                                                                                ",
"                                                                                                                                ",
"                                                                                                                                ",
"                                                                                                                                ",
"                                                                                                                                ",
"                                                                                                                                ",
"                                                                                                                                ",
"                                                                                                                                ",
"                                                                                                                                ",
"                                                                                                                                ",
"                                                                                                                                "
};