/* XPM */
static char *aqv83_v7gmq[] = {
/* columns rows colors chars-per-pixel */
"64 64 68 1 ",
"  c #110A03",
". c #904706",
"X c #C65E05",
"o c #EF6B03",
"O c #EF6C03",
"+ c #EF6F05",
"@ c #EF7106",
"# c #F07106",
"$ c #F07407",
"% c #F07508",
"& c #F17A0B",
"* c #F77808",
"= c #F17C0B",
"- c #F17F0D",
"; c #988E23",
": c #F2800E",
"> c #F4820E",
", c #F2840F",
"< c #F28410",
"1 c #F28710",
"2 c #F38812",
"3 c #F38B14",
"4 c #F38D14",
"5 c #F48F16",
"6 c #F49116",
"7 c #F49318",
"8 c #F59719",
"9 c #F5981A",
"0 c #F59B1C",
"q c #F59C1C",
"w c #F6A11E",
"e c #F6A320",
"r c #F7A521",
"t c #F7A822",
"y c #F7AB24",
"u c #F8AE23",
"i c #F8AE25",
"p c #F8B127",
"a c #F8B228",
"s c #F9B428",
"d c #F9B92B",
"f c #FABB2C",
"g c #FABE2E",
"h c #D3C831",
"j c #FBC12F",
"k c #FBCA2F",
"l c #FBC230",
"z c #FBC731",
"x c #FBC832",
"c c #FCCB32",
"v c #FCCC32",
"b c #FCCA34",
"n c #FCCC35",
"m c #FCD033",
"M c #FCD134",
"N c #FCD635",
"B c #FDD936",
"V c #FDDC36",
"C c #FEE237",
"Z c #FEE637",
"A c #FEE338",
"S c #FEE638",
"D c #FEEB39",
"F c #FFEE3A",
"G c #FFF23B",
"H c #FFF43B",
"J c #FFF53C",
"K c #FFF93D",
/* pixels */
" ;KGGGGGGGGGGGGGGGGGGGGGGGGGGGGGGGGGGGGGGGGGGGGGGGGGGGGGGGGGGK; ",
";hFBDGGGCCGGSBBNAGVNNNNSGVSGGGSVFHDBFDBBDDVFHFVDDVFHFBNNVFGGGJh;",
"KFBxSHGGNMGHVlllvCxxMMzMCxVGGGVcFJSxVNllBBxDJDxBBxDJDxvcxDHGGDFK",
"GVzxSHGGNMFGBzzxxxzBGFMzxzVGGGVcDGAzzzxxxzxSGSxzzxSGSxCVcDGGGMBG",
"GFVxSJHGNzmmxvASSAcVJGMMCcVJGJCzvMvzlNSSSBzvMvzllzvMvzvvcDJHGmNG",
"GDNzNVVVvzzNvvFJJFvmVVcvBxMVVVMzllxBxBHHJSxNvzNBBNxvBBxlzBVVVxNG",
"GBzvvxzvxzxABvFGHFvxczxvvzxxzxvvvzMSvBGGHAxABvFHHFvBHGMzvvxzzxVG",
"GNvDFBvSNzzxzvFGGFvBSxVFDvBAxCFFFNzxzBGGGAzxzvFGHFvBGGMMFFNlzCGG",
"GNMGJVxNvvCCMxNNNNzvMxSKFvvMxSJGGBlllvNNNMzllvFJJFvvNNxNJJBlzmAG",
"GNvCSNzllNGJVzlllzMvlzBSVxllzSJGGBxMNvzMxxMNccCSSCcvmzlmAAMxMMCG",
"GBzzxxxxzMFGBzxxzxSBzzzxxxzzzAGFFNMFGVvSNMFGBzzxxxzBSxzxxxzmFGGG",
"GFVxVDDSMzvvxvSDBzvxzzlMSDNzzvvvvzMGJVzvxMGJVzzBDSvxvzVDSDMmGJGG",
"GDNxSJHGNcBxlvGKSxNBBBxNJJBxBxvBBvcBVMzllcBVMlzSKGvllzSJHHBxBBSG",
"GBlxSHGGNmSvlvSDBxDHGGMMDDNvSvNHGBlzcxzvvvvzxvzVDSvlzzSJGGBzzxVG",
"GBzxSGGGNzxzzzxxxxDHGGMzxcxzxzNGGNlzABvDFFDvBSxzxxzzzzAGGGBlzCGG",
"GDBxmNNNxvCASVxBBxDJHGMvCCABzlxNNclzMvvFJJGvvMzlvCAAVxvNNNclzvCG",
"GDBzlvMzlNGHJDxBBxVAACvNGHJDxvNMzvNNNcvFJHFvxNNxNGHJDxlxMzvNNMCG",
"GVxxzBSxlMGGGDxxcxzzzxzNGGHSxSHDcVGGGVvDFFDvBGGMMGGHDxlNSvVGGGGG",
"GFDSvxvzlNGGHDxBDSvlvSmNGGJSxSJFvVHGHVzvvvvzBJGNMGGHDxlxvzVHGGGG",
"GHJGMlxBvcBBBNxSKGvlxBvvBBBNzNVNxVJHJVxBVMzlvBBvcBBBNxNVBxVJHHGG",
"GFDSvlcSMzvvxzzBDSvxvzzxvvxzvxllzBDDDNvFJSxvvvvxxvvxzzSJFvNDDSFG",
"GBxxzzzxzMFGBzzxxxzBSxlNFFNvDMzzzxxxxzvDHCxSGFFMMFFBzzAGDvzxxxBG",
"GNcCSSVxlNGJVxCSACcvmzlNJJBxMxMSSSBxVNzMNvxDJHGMNHJVzzvNmzllzBDG",
"GNMGJJFclvCCMvFJJFvcNNxvCCMlllBHHJSxBNllmMxDJHGNvCCMxNxxNNNMzBDG",
"GNMGGHDxzxzzlvFHHFvBGGMzxzxcxzBGGHSxxcxzVCxAFFFMzzzlvSMNGGGSxlBG",
"GNMGGHDcVCzzlvFGHFvBHGMMScBFDvNGGHSxCFSxxxzxvvvxzzzzzczNGGHSxlBG",
"GNxBBBNzMNxBMxNBBNxvBNxvNxVJGMvBBBMxDKFcMVVVmxBVNxBVVVcNGHJSxNDG",
"GCvzvmvzllzCNzvmczvxzvMMvzNSSvlzvMvzVDCxCJGJVvFJAcDJHGMmSSSVxVFG",
"GGCxSGDxzzzxzvDGCxSBvFGGDvzxxxzcDGAzzxxzCHGGBvDGCxDGGGMzxxxxzxVG",
"GCvxDJFcBSSSMvFJSxmcvFHHFvNSSSNvFJSzlNCxCJHJVzvMvxDJHGNlxCMvASDG",
"JBzxBABxCJHJVxVABxzzvGJJFvVJHJVxVABzzNVcNACCMxNclcVACAMzcVMMGJJJ",
"CkdddgzzCHGGVzzgdddgvDFFScVGGHClfgzzgglfdgzzzvSNgddjldddflzvDFZC",
"1,::-qzzCGGGVzl9-::rxcvvczVGGGAf2rxj6qd2-8lzzzcci:-rs1--2dzzcnu1",
"####@8zxMBBBMxl5@#@qg96rzzMBBBNjrsbziss&o4gw888st@+qs&@@-si88dw#",
"%$##@9jpfzlaiaj6@##ws&+6jpdzlaipzdiiigg82wg1+#%ts44is&##-d9+%ir%",
"%&&&&qd2tcg2$2g8%&&rs:%9f2exj5#1d0%&%0zggzg1#%%tzjgls:&&1dq%-pr%",
"%9sppflsgcg1O:gfpppglapfzsfzj2+-d9@$#9f6icg1@#%tbj8rjapaszfiplr%",
"%4izcswewijr8wjpwtjprlpwweszzr8wg8@#@9gqsble899dcjwiczieewsczi2%",
"%&8lxw$%#4jfgzl6+-sw6g5#%$wldjzzzq:::wldssdlzzzgflfsfj4#%$wxl8&%",
"%qgzzw%%#6g5qzl6@-slgj5#%%es1pxzzgfffjd2--1sxzz88g4&6g6#%$wzzgq%",
"%288fw@#+4gisczsrtjbbl4+##wgtgp877rjwts-@@&pcxzppg:o1f4+##wf882%",
"%#+%pp544wzcdyyidzptpjw465izccw##@3g9rs-@#&agyigcj93qje455pp%+#%",
"%&&:plgjgggzw%%%8f1#2gzjggjlgzr%%#4jzzd1&&:sw%&tzgjgggggjglp:&&%",
"%9ssjr6gw14dw##@6f:+1gci21is4sr##@2jzzzsaaslq@%tp4dt111wg6rjss9%",
"%2izxpwg6o%aw@#+6gr9rzcr@+wgwfsq09tzzaqwffegp9qddwgq@#+6gwpcxnr%",
"%=9lzzzzq:2dt111qzzzjsji11tlssgzzzjslw#$tp4sczzfsdlq#%@6zzgdlf9%",
"%qjlzzzlgfgjjggfgzzzs1izgfla:&9zzzp1sr%%rzgjzzz8&1dq%%%8zzq6g8&%",
"%1766tg95rj9tg96rzzcjifxj9ip%O8g8igyggyigs865qg5o&sfyitszzspzs6%",
"%###@9s&o4g9ts&O5jittigxj9if86tg9iczptyigi%#@:fr59fdyijfyjdyti8%",
"%%%%#0d1&8lzzs1&9g1$%&izgfgglgglggjg2$%%ti&%#1gzjgzq$&iy2dq%%%%%",
"%%$$#9ldsfzzzldsgg1@#%ii11:8g8qg5:9g2@$%ti%#@1gci4dq@%yjsl9#%%%%",
"%4wqwpzzytjr9qqdbg:+@%it##+2gtid-o2f2+##rgwqqrzbswgpqwfbbz8@###%",
"%rbzdfzzq9g1@#%tcj7112st%#@2jxcg610g9112ijsjxlspdzzzlsapslr112:%",
"%wzj5qzlgjg1#$%tzjggfgzt&%%4jzljgggjggggzi1sbs:%8lzzs:&&1dlgggq%",
"%:qjpsg84eg1@#%ta6fi56sgiiyajq28gt455txccgijbs&O6g8ts&#@-srqjw:%",
"%1wzxcs&o4gw688ss8f9+#ygyjbbj2o-d8+#@9jyrpzisg96rjqis&@@-stqjr1%",
"%qgglxd2&8lzgglggzzw-:py2djgj7&2f9#%#0d-@6g5qzzzjfdls1--2dzlggq%",
"%-:1sxldsgzze6g98zzgsdjjdlq6jgsfl8#%#0d-+4jfgzzxi1:rldsddlxs1:-%",
"%#+%icgw99qgstlitzzi909yzxptlcaqgaerwsjrqijr999dt@+0xzt999sp%+#%",
"%:24sbs-@@&agppgzzz9@#@6jspszxt6ggpslgazxcg1@#%ta22txl4@##wd42:%",
"%qgjjzs-##-sr&&yzjzq#%#8f2%4jzjjz9%-sr2gzzg1#%%tzjjjlj4#%%wzjgq%",
"*>wl9rd-##-sw#%is7gq#%#8g:+2gqecx8+&agazwqg2#%%ybcbr9j6#%%wbzq>*",
".X>q-29&$%&94$%86&94%%$2q-#:q-1ww2#&8rrw::q:$%%6rwe2-q1#%%4rw>X.",
" .*%%%%%%%%%%%%%%%%%%%%%%%%%%%%%%%%%%%%%%%%%%%%%%%%%%%%%%%%%%*. "
};
