/* XPM */
static char *agmal_5lmc4[] = {
/* columns rows colors chars-per-pixel */
"64 64 194 2 ",
"   c None",
".  c #070200",
"X  c #0B0500",
"o  c #0D0801",
"O  c #130A03",
"+  c #1C0D06",
"@  c #150F08",
"#  c #1B0F08",
"$  c #171009",
"%  c #1C130C",
"&  c #1A1006",
"*  c #1B1710",
"=  c #1E1913",
"-  c #210F08",
";  c #25120B",
":  c #2A150D",
">  c #24190E",
",  c #30150D",
"<  c #381F0B",
"1  c #351C0C",
"2  c #221B13",
"3  c #2C1D11",
"4  c #231F18",
"5  c #2F1710",
"6  c #331C12",
"7  c #3C1B13",
"8  c #351F18",
"9  c #2E2013",
"0  c #27231D",
"q  c #342415",
"w  c #3B2310",
"e  c #3D2B1A",
"r  c #3A251C",
"t  c #39200C",
"y  c #2A2620",
"u  c #2D2E2A",
"i  c #2A2823",
"p  c #312B24",
"a  c #2F302B",
"s  c #32322D",
"d  c #3C332D",
"f  c #343531",
"g  c #383732",
"h  c #393A37",
"j  c #421D15",
"k  c #42230B",
"l  c #462018",
"z  c #49221A",
"x  c #412C1A",
"c  c #472417",
"v  c #56261F",
"b  c #54281E",
"n  c #552D16",
"m  c #45331F",
"M  c #5A3214",
"N  c #5F3A1C",
"B  c #63361E",
"V  c #4C2D26",
"C  c #5C2B21",
"Z  c #572720",
"A  c #463420",
"S  c #493622",
"D  c #4C3823",
"F  c #553D25",
"G  c #50322A",
"H  c #443B32",
"J  c #642E25",
"K  c #682E27",
"L  c #663026",
"P  c #683027",
"I  c #6B3228",
"U  c #6A392B",
"Y  c #73352B",
"T  c #7B3A2F",
"R  c #7E3C30",
"E  c #3E403D",
"W  c #40413E",
"Q  c #54412D",
"!  c #66462B",
"~  c #7B4624",
"^  c #684D31",
"/  c #7D4836",
"(  c #7A5B3A",
")  c #474B48",
"_  c #484B49",
"`  c #444744",
"'  c #554C47",
"]  c #4E514E",
"[  c #545956",
"{  c #565A56",
"}  c #50544F",
"|  c #625B50",
" . c #5D625F",
".. c #7D6348",
"X. c #5F6562",
"o. c #616662",
"O. c #666A67",
"+. c #666C69",
"@. c #6A6D68",
"#. c #686B67",
"$. c #6C706D",
"%. c #6F7673",
"&. c #707774",
"*. c #777C78",
"=. c #853E31",
"-. c #864B21",
";. c #80402C",
":. c #8E582D",
">. c #9A562B",
",. c #874032",
"<. c #8D4434",
"1. c #864D39",
"2. c #914636",
"3. c #954A35",
"4. c #994D36",
"5. c #86523B",
"6. c #92553E",
"7. c #A25436",
"8. c #AB5A36",
"9. c #A5593D",
"0. c #81603E",
"q. c #AA612D",
"w. c #B46337",
"e. c #B96737",
"r. c #BD6937",
"t. c #BC6938",
"y. c #B4713E",
"u. c #C16D36",
"i. c #C16C39",
"p. c #C47135",
"a. c #CB7537",
"s. c #CE7738",
"d. c #CF7838",
"f. c #D07737",
"g. c #D17938",
"h. c #A35F45",
"j. c #856442",
"k. c #896744",
"l. c #956946",
"z. c #9E7045",
"x. c #9F784F",
"c. c #9E774F",
"v. c #AD6448",
"b. c #B46B4A",
"n. c #A5724F",
"m. c #A37A51",
"M. c #A97B53",
"N. c #A77551",
"B. c #C67746",
"V. c #C6794B",
"C. c #7B817E",
"Z. c #AE8257",
"A. c #B78A5D",
"S. c #B9885C",
"D. c #BD8F60",
"F. c #BE9061",
"G. c #CF814C",
"H. c #D3844A",
"J. c #D9894B",
"K. c #C5895C",
"L. c #C9905C",
"P. c #E4985A",
"I. c #C29363",
"U. c #C89866",
"Y. c #D89261",
"T. c #D99C6A",
"R. c #E39F6C",
"E. c #DDA66F",
"W. c #DFA770",
"Q. c #EAA76C",
"!. c #EFAA6C",
"~. c #E4A46D",
"^. c #F0AD6F",
"/. c #E7A671",
"(. c #E1A972",
"). c #EFAB71",
"_. c #F1AE72",
"`. c #F6B173",
"'. c #FFBE7F",
"]. c #F8B273",
"[. c #7C8381",
"{. c #838986",
"}. c #838B88",
"|. c #868C88",
" X c #909895",
".X c #969E9C",
"XX c #8E9491",
"oX c #99A19E",
"OX c #9DA4A1",
"+X c #9EA6A4",
"@X c #9CA4A1",
"#X c #A3ABA8",
"$X c #ACB5B2",
"%X c #B2BBB9",
/* pixels */
"    . . . . . . . X o o X . . . . . . X o o X . . . . . . .         . . . . . . . X o o X . . . . . . X o o X . . . . . . .     ",
"    3 9 9 9 9 9 9 > @ @ > 9 9 9 9 9 9 > @ @ > 9 9 9 9 9 9 3         3 9 9 9 9 9 9 > @ @ > 9 9 9 9 9 9 > @ @ > 9 9 9 9 9 9 3     ",
"  e ( j.j.j.j.j.k.^ 3 3 ^ j.j.j.j.j.k.^ 3 3 ^ j.j.j.j.j.k.( e     e ( j.j.j.j.j.k.^ 3 3 ^ j.j.j.j.j.k.^ 3 3 ^ j.j.j.j.j.k.( e   ",
"X m Z.(.(.E.E.W.(.M.e e M.(.(.E.E.W.(.M.e e M.(.(.E.E.W.(.Z.m . . A Z.(.(.E.E.W.(.M.e e M.(.(.E.E.W.(.M.e e M.(.(.E.E.W.(.Z.m X ",
"X A I.'.`.!.!.Q.R.n.e m I.'.`.!.!.Q.R.n.e m I.'.`.!.!.Q.R.N.x X X A I.'.`.!.!.Q.R.n.e m I.'.`.!.!.Q.R.n.e m I.'.`.!.!.Q.R.n.e X ",
"X A F.].P.J.J.G.b./ 5 A F.].P.J.J.G.b./ 5 A I.].P.J.J.G.b.1.6 X X A I.].P.J.J.G.b./ 5 A I.].P.J.J.G.b./ 5 A F.].P.J.J.G.b./ 6 o ",
"X A D._.J.a.a.t.4.J ; A F._.J.a.a.t.4.J ; A F._.J.a.a.t.4.P : X X A I._.J.a.a.t.4.J ; A F._.J.a.a.t.4.J ; A F._.J.a.a.t.4.P : o ",
"X A I.].J.a.f.r.4.J ; A I.].J.a.f.r.4.J ; A I.].J.a.f.r.4.J : X X A I.].J.f.f.r.4.J ; A I.].J.a.f.u.4.J ; A I.].J.a.f.r.4.J : o ",
"X A A.Q.H.p.p.w.3.J ; m A.Q.H.p.p.w.3.J ; m A.Q.H.p.p.w.3.J : X X A A.Q.H.p.p.w.3.J ; m A.Q.H.p.p.w.3.J ; m A.Q.H.p.p.w.3.J : o ",
"o q ( z.:.-.-.~ B j + q ( z.:.-.-.~ B j + q ( z.:.-.-.~ L l ; o o q ( z.:.-.-.~ B j + 9 ( z.:.-.-.~ B j + q ( z.:.-.-.~ L l ; o ",
"O % q x w < < 1 : - O & q x w < < 1 : - O & q x w < w 1 : ; @ O O % q x w < < 1 : - O & q x w < < 1 : - O & q x w < < 1 : ; @ O ",
"O $ 4 y y y y y y y y y y y y y y y y y y y y y y 0 4 4 4 = @ O O $ 4 y y y y y y y y y y y y y y y y y y y y y y 0 4 4 4 = @ O ",
"o 0 _ O.O.O.O.O.O.#.#.#.O.O.O.O.O.O.#.#.#.#.O.O.O. .] ) _ h = o o 0 ] O.+.O.O.O.#.#.#.#.O.O.O.O.O.O.#.#.#.#.O.O.O. .] _ _ h = o ",
"o a *.#X#XOX+X+XOX+X+X+X+X+X+X+X+X+XOX+X+X+X+X+X+X XC.%.&.{ 0 o o a C.#X#X+X+X+X+X+XOXOX+X+X+X+X+X+X+X+X+XOX+X+X+X XC.&.%.{ 0 o ",
"o f |.%X#X+X+X+X+X+X+X+X+X+X+X+X+X+X+X+X+X+X+X+X+X.X|.C.&.[ 0 o o f XX%X#X+X+X+X+X+X+X+X+X+X+X+X+X+X+X+X+X+X+X+X+X.X|.C.&.} 0 o ",
"o s |.#X X{.{.}.{.{.}.}.}.}.}.{.}.}.}.}.}.}.}.}.}.{.[.&.X.` 4 o o s |.#X X{.{.}.}.{.}.}.}.}.}.}.}.}.}.}.}.}.}.}.}.{.[.&.X.` 4 o ",
"o p #.{.$.X.o.o.o.o.o.o.X.X.o.o.o.o.o.o.o.o.X.X.o.o.o.{ ) s * o o p @.{.$.X.X.o.o.o.o.o.X.X.o.o.o.o.o.o.o.o.o.X.X.o.o.{ ) s * o ",
"o = f W g s s s s s s s s u s s s s s s s s a u s s s a i = @ O O = f W g s s s s s s s a u s s s s s s s s s u s s s a i = @ O ",
"O @ > 2 > % % % % % $ % > > % % % % % % $ % > 2 % % % % % # @ O O @ > 2 > % % % % % $ % > > % % % % % % $ % > 2 % % % % % # O O ",
"o > F ! c 7 7 7 7 , O > F ! z 7 7 7 7 , O > F ! z 7 7 7 7 6 + o o > F ! c 7 7 7 7 , O > F ! c 7 7 7 7 , O > F ! z 7 7 7 7 6 + o ",
"X e x.S.1.I I Y Y v ; e m.S.1.I I Y Y v ; e m.S.1.I I Y Y C : o X x m.S.1.I I Y Y v ; e m.S.1.I I Y Y v ; e m.S.1.I I Y Y C : o ",
"X A I./.b.3.3.3.<.J ; A I./.b.3.3.3.<.J ; A I./.b.3.3.3.<.I : X X A I./.b.3.3.3.<.J ; A I./.b.3.3.3.<.J ; A I./.b.3.3.3.<.I : o ",
"X A I.).V.w.w.8.3.J ; A I.).V.w.w.8.3.J ; A I._.V.w.w.8.3.I : X X A I.).V.w.w.8.3.J ; A I._.V.w.w.8.3.J ; A I.).V.w.w.8.3.I : o ",
"X A D.^.J.a.a.e.4.J ; A F.!.J.a.a.e.4.J ; A F.^.J.a.a.e.4.P : X X A F.!.J.a.a.t.4.J ; A F.^.J.a.a.e.4.J ; A F.^.J.a.a.e.4.P : o ",
"X A D.^.J.a.a.t.4.J ; A D.^.J.a.a.t.4.J ; A F._.J.g.g.i.4.P : X X A F._.J.g.g.i.4.J ; A D.^.J.a.a.t.4.J ; A F.^.J.a.a.t.4.J : o ",
"X A D.^.J.a.a.t.4.J ; A D.^.J.a.a.t.4.J ; A F.^.J.a.a.t.4.P : X X A F.^.J.a.a.t.4.J ; A D.^.J.a.a.t.4.J ; A F.^.J.a.a.t.4.P : o ",
"X A D.^.J.a.a.t.4.J ; A D.^.J.a.a.t.4.J ; A I.Q.y.>.>.>.<.I : X X A I.Q.y.>.>.>.<.J ; A D.^.J.a.a.t.4.J ; A F.^.J.a.a.t.4.P : o ",
"X A D.^.J.a.a.t.4.J ; A D.^.J.a.a.t.4.J ; A I.T.~ k k n T I 5 X X D U.T.~ k k n T I ; A D.^.J.a.a.t.4.J ; A F.^.J.a.a.t.4.P : o ",
"X A D.^.J.a.a.t.4.J ; A F.^.J.a.a.t.4.J ; m Z.A.Q = = r P J : o X m Z.A.Q = 2 r I C ; A F.^.J.a.a.t.4.J ; A F.^.J.a.a.t.4.P : o ",
"X A D.^.J.a.a.t.4.J ; A F.^.J.a.a.t.4.J : 3 ^ ..| [ { ' G 7 ; o o 9 ^ ..| { { ' G 7 + A F.^.J.a.a.t.4.J ; A D.^.J.a.a.t.4.P : o ",
"X A D.^.J.a.a.t.4.J ; A D.^.J.a.a.t.4.P : O > H *.oXoX*.d + O O O @ > H *.oXoX*.d O o A F.^.J.a.a.t.4.J ; A D.^.J.a.a.t.4.P : o ",
"X A D.^.J.a.a.t.4.J ; A D.^.J.a.a.t.4.P : X . s |.%X$XC.u X o O O o . s |.%X$XC.u . . A F.^.J.a.a.t.4.J ; A D.^.J.a.a.t.4.P : o ",
"X A D.^.J.a.a.t.4.J ; A D.^.J.a.a.t.4.P : X . s |.$XoX$.i X o O O o . s |.$XoX$.i . . A F.^.J.a.a.t.4.J ; A D.^.J.a.a.t.4.P : o ",
"X A D.^.J.a.a.t.4.J ; A D.^.J.a.a.t.4.P : O O d *.XX*.[ p + O O O O + d *.XX*.[ p O o A F.^.J.a.a.t.4.J ; A D.^.J.a.a.t.4.P : o ",
"X A D.^.J.a.a.t.4.J ; A D.^.J.a.a.t.4.P : + 7 V ' } ` H V 7 ; o o + 7 V ' } ` H V 7 + A F.^.J.a.a.t.4.J ; A F.^.J.a.a.t.4.P : o ",
"X A D.^.J.a.a.t.4.J ; A F.^.J.a.a.t.4.J : : J U r = * 8 P J : o o : P U r = * 6 P C ; A F.^.J.a.a.t.4.J ; A F.^.J.a.a.t.4.P : o ",
"X A D.^.J.a.a.t.4.J ; A F.^.J.a.a.t.4.J ; q 5.6.b : : z Y I 5 o X q 5.6.b : : z Y I ; A D.^.J.a.a.t.4.J ; A F.^.J.a.a.t.4.J : o ",
"X A D.^.J.a.a.t.4.J ; A D.^.J.a.a.t.4.J ; x M.K.1.J J I =.I : X X x M.K.1.J J I =.P ; A D.^.J.a.a.t.4.J ; A F.^.J.a.a.t.4.J : o ",
"X A D.^.J.a.a.t.4.J ; A F.^.J.a.a.t.4.J ; A F.~.v.<.<.<.,.P : X X A I.~.v.<.<.<.,.J ; A F.^.J.a.a.t.4.J ; A F.^.J.a.a.t.4.P : o ",
"X A D.^.J.a.a.t.4.J ; A D.^.J.a.a.t.4.J ; A I.).V.8.8.7.2.P : X X A I.).V.8.8.7.2.J ; A F.^.J.a.a.t.4.J ; A F.^.J.a.a.t.4.P : o ",
"X A D.^.J.a.a.t.4.J ; A F.^.J.a.a.t.4.J ; A F.!.J.p.p.w.3.P : X X A F.!.H.p.p.w.3.J ; A F.^.J.a.a.t.4.J ; A F.^.J.a.a.t.4.P : o ",
"X A I.`.J.a.d.t.4.J ; A I.`.J.s.g.t.4.J ; A I.`.J.g.g.i.4.I : X X A I.`.J.g.g.i.4.J ; A I.`.J.s.g.t.4.J ; A I.`.J.s.g.t.4.I : o ",
"X A I.`.J.a.s.t.4.J ; A I.`.J.s.s.t.4.J ; A I.`.J.s.g.t.4.I : X X A I.`.J.s.g.t.4.J ; A I.`.J.s.s.t.4.J ; A I.`.J.s.d.t.4.I : o ",
"X e x.L.y.q.q.>.;.v - e x.L.y.q.q.>.;.v ; e x.L.y.q.q.>.;.C ; o X e m.L.y.q.q.>.;.v - e x.L.y.q.q.>.;.v ; e x.L.y.q.q.>.;.Z ; o ",
"o > F ! B M M n l , O > F ! B M M n l , O > F ! B M M n l 6 + o o > F ! B M M n l , O > F ! B M M n l , O > F ! B M M n l 6 + o ",
"O @ > 2 > > > > % % $ % > 2 > > > > % % $ % > 2 > > > > % # O O O @ 2 2 > > > > % % $ % > 2 > > > > % % $ % > 2 > > > > % # O O ",
"O = g W g s s f f f g f s s s f f f f f g f s s s f f a i = @ O O = g W g s s f f f g f s s s f f f f f g f s s s f f a i = $ O ",
"o p @.{.$.X.o.o.o.o.o.o.o.o.o.o.o.o.o.o.o.o.o.o.o.o.o.{ ) s * o o p $.{.$.X.o.o.o.o.o.o.o.o.o.o.o.o.o.o.o.o.o.o.o.o.o.{ ) s * O ",
"o s C.+X|.*.&.%.%.%.%.%.%.%.%.%.%.%.%.%.%.%.%.%.%.%.&.+.{ h = o o s {.+X|.*.&.%.%.%.%.%.%.%.%.%.%.%.%.%.%.%.%.%.%.%.&.+.{ h = o ",
"o p &. X|.*.+.X.X.X.X.X.X.X.X.X.X.X.X.X.X.X.X.X.X.X.o.X.[ E = o o p &. X|.*.+.X.X.X.X.X.X.X.X.X.X.X.X.X.X.X.X.X.X.X.X.X.[ h = o ",
"o 0 { *.&.+.} ) ) ) _ _ _ _ ) _ ) ) ) _ _ _ _ _ _ ) _ _ ) h = o o 0 { *.&.+.} ) ) ) _ _ _ _ ) _ ) ) ) _ _ _ _ _ _ ) _ _ ) h = o ",
"O = f ) _ ` f u u u u u u u u u u u u u u u u u u u u u a i $ o O = f ) _ ` f u u u u u u u u u u u u u u u u u u u u u a i $ O ",
"O @ = 4 4 = * % % % % % % % % % % % % % % % % % % % % % % $ O O O @ = 4 4 = * % % % % % % % % % % % % % % % % % % % % % % $ O O ",
"o % q e 5 ; ; : : ; O % q e 6 ; ; : : ; O % q e 6 ; ; : : ; @ O O % q e 5 ; ; : : ; O % q e 6 ; ; : : ; O % q e 6 ; ; : : ; @ O ",
"o q 5.l.U v v C C l + q 0.l.U v Z C C l + q 0.l.U v v C C z ; o o q 0.l.U v v C C l + q 0.l.U v Z C C l + q 0.l.U v Z C C z ; o ",
"X A A.T.h.=.=.,.=.J ; A A.T.h.=.=.,.=.J ; A A.T.h.=.=.,.=.P : X X A A.T.h.=.=.,.=.J ; A A.T.h.=.=.,.=.J ; A A.T.h.=.=.,.=.P : o ",
"X A I._.V.8.8.7.2.K ; A U._.V.8.8.7.3.P ; A U._.V.8.8.7.3.I : X X D U._.V.8.8.7.2.K ; A U._.V.8.8.7.3.P ; A U._.V.8.8.7.3.I : o ",
"X A D.!.H.u.u.w.3.J ; A F.!.H.u.u.w.3.J ; A F.).H.u.u.w.3.I : X X A I.!.H.u.u.w.3.J ; A F.!.H.u.u.w.3.J ; A F.).H.u.u.w.3.P : o ",
"X x N.Y.B.r.r.w.3.J ; e N.Y.B.r.r.w.3.J ; e M.Y.B.r.r.w.3.I : X X x M.Y.B.r.r.w.3.J ; e N.Y.B.r.r.w.3.J ; e M.Y.B.r.r.w.3.P : o ",
"o q 1.v.9.7.7.4.2.I : 6 5.v.9.7.7.4.2.I : q 5.v.9.7.7.4.2.I : o o q 5.v.9.7.7.4.2.I : 6 5.v.9.7.7.4.2.I : q 5.v.9.7.7.4.2.P : o ",
"o : L R T T T T T C : : J R T T T T T C ; : J R T T T T T J : o o : P R T T T T T C : : J R T T T T T C ; : J R T T T T T J : o ",
"  ; 7 z z z z z z 7 % # 7 z z z z z z 7 % # 7 z z z z z z l ;     ; j z z z z z z 7 % # 7 z z z z z z 7 % # 7 z z z z z z l ;   ",
"    % % % % % ; ; # @ O + % % % % ; ; # O O + ; % % % % ; %         # % % % % % ; # @ O + % % % % ; ; # O O + ; % % % % ; %     ",
"    o o o o o o o o O O o o o o o o o o o o o o o o o o o o         o o o o o o o o O O o o o o o o o o o o o o o o o o o o     "
};
