/* XPM */
static char *adf6p_qqn98[] = {
/* columns rows colors chars-per-pixel */
"64 64 197 2 ",
"   c None",
".  c #0D0602",
"X  c #0F0903",
"o  c #120A03",
"O  c #150D09",
"+  c #180D08",
"@  c #1E1207",
"#  c #1B140E",
"$  c #1A1915",
"%  c #2B1606",
"&  c #231506",
"*  c #341B05",
"=  c #231213",
"-  c #251E19",
";  c #2C1917",
":  c #391D10",
">  c #3B1E1A",
",  c #1D201C",
"<  c #2C2208",
"1  c #2E2506",
"2  c #3D2E0A",
"3  c #352808",
"4  c #3D350D",
"5  c #21241F",
"6  c #3F211D",
"7  c #131D23",
"8  c #232620",
"9  c #252822",
"0  c #2A2B26",
"q  c #31312B",
"w  c #213039",
"e  c #3C3B36",
"r  c #3E2E31",
"t  c #49250F",
"y  c #5C2A0A",
"u  c #42370C",
"i  c #40211E",
"p  c #5A2D1A",
"a  c #572B1A",
"s  c #553F10",
"d  c #61300B",
"f  c #71380A",
"g  c #6A341A",
"h  c #793C19",
"j  c #773916",
"k  c #462A26",
"l  c #5C3D23",
"z  c #603E24",
"x  c #723A22",
"c  c #564A13",
"v  c #544D13",
"b  c #77461D",
"n  c #685E15",
"m  c #685615",
"M  c #765A16",
"N  c #6C6018",
"B  c #766C18",
"V  c #44443F",
"C  c #7A5324",
"Z  c #6E4528",
"A  c #2B3D45",
"S  c #374C50",
"D  c #3C5A64",
"F  c #494342",
"G  c #554A4E",
"H  c #445C59",
"J  c #4B635D",
"K  c #5D615D",
"L  c #47656A",
"P  c #456975",
"I  c #416572",
"U  c #4E747D",
"Y  c #52787D",
"T  c #526764",
"R  c #656865",
"E  c #707877",
"W  c #68716F",
"Q  c #803F07",
"!  c #823E25",
"~  c #824006",
"^  c #935A0C",
"/  c #944811",
"(  c #BF5D0E",
")  c #B0560E",
"_  c #A95516",
"`  c #B95917",
"'  c #A24C10",
"]  c #8C6C1A",
"[  c #87671A",
"{  c #956E1A",
"}  c #84791A",
"|  c #967619",
" . c #B56218",
".. c #A47D1F",
"X. c #894C2D",
"o. c #884529",
"O. c #994B2D",
"+. c #924529",
"@. c #9A5432",
"#. c #995733",
"$. c #A87D2C",
"%. c #BE7829",
"&. c #C15E0E",
"*. c #C15A19",
"=. c #C8630D",
"-. c #DC6B0B",
";. c #C2651B",
":. c #C2771B",
">. c #E36E0C",
",. c #E67B12",
"<. c #C57628",
"1. c #978C1F",
"2. c #94881D",
"3. c #8C8320",
"4. c #948B22",
"5. c #9B8B22",
"6. c #9C9122",
"7. c #A98126",
"8. c #B28926",
"9. c #A29824",
"0. c #BB8631",
"q. c #B6AA29",
"w. c #BBB12B",
"e. c #ACA127",
"r. c #D08D1C",
"t. c #E78A17",
"y. c #E89818",
"u. c #F99918",
"i. c #FFB01F",
"p. c #C5862A",
"a. c #C49A26",
"s. c #C69627",
"d. c #C78932",
"f. c #CC9035",
"g. c #DB9820",
"h. c #E99A22",
"j. c #D0A426",
"k. c #C8B82D",
"l. c #D7AA2A",
"z. c #EAA729",
"x. c #F6AA25",
"c. c #E5B32D",
"v. c #ECBA2E",
"b. c #E9B72B",
"n. c #F7BB2C",
"m. c #ECB932",
"M. c #ECB530",
"N. c #D5CA31",
"B. c #D9CB32",
"V. c #D1C530",
"C. c #FDC32E",
"Z. c #FFD52F",
"A. c #E6C130",
"S. c #FECB32",
"D. c #F9C431",
"F. c #E5D935",
"G. c #E9DC36",
"H. c #E3D634",
"J. c #FFD434",
"K. c #FFDC36",
"L. c #ECE037",
"P. c #FEE438",
"I. c #FEEC3A",
"U. c #F9E738",
"Y. c #FFF33B",
"T. c #FFFA3D",
"R. c #547B83",
"E. c #5B7E86",
"W. c #5C8689",
"Q. c #638E8D",
"!. c #6C8783",
"~. c #68918D",
"^. c #6A9494",
"/. c #6D9B97",
"(. c #739E94",
"). c #709797",
"_. c #76A39B",
"`. c #7CACA3",
"'. c #7EA3A2",
"]. c #7FB1A6",
"[. c #8A9C9A",
"{. c #85ABA6",
"}. c #85B6AB",
"|. c #8DBBB1",
" X c #92BCB3",
".X c #95B5B2",
"XX c #A0BEB8",
"oX c #99C3B9",
"OX c #A6C5BF",
"+X c #A5CBC2",
"@X c #ABCBC4",
"#X c #ADD0C8",
"$X c #B4D4CD",
"%X c #BCDAD3",
"&X c #B9D7D0",
"*X c #B1CFCA",
"=X c #C0DED6",
/* pixels */
"                                                                                                                                ",
"                                                                                                                                ",
"                                                                                                                                ",
"                                                                                                                                ",
"                                                                                                                                ",
"                                                                                                                                ",
"                                                                                                                                ",
"                                                                                                                                ",
"                                                                                                                                ",
"                                                                                                                                ",
"                                                                                                                                ",
"                                                                                                                                ",
"                                                                                                                                ",
"                                                                                                                                ",
"                          %X%X%X                                                                %X%X%X                          ",
"                          %X%X%X                                                                %X%X%X                          ",
"                      %X%X%X%X%X                                                                %X%X%X=X=X                      ",
"                      %X%X%X%X%X                                                                %X&X$X$X*X                      ",
"                      %X%X%X%X%X%X                                                            %X=X&X+X.X{.                      ",
"                      %X%X%X%X%X%X%X        . . . . . . . . . . . . . . . . . . . .         %X%X=X$X.X^.E.                      ",
"                      %X%X%X%X&X$X#XXX    3 4 4 4 4 4 4 4 4 4 4 4 4 4 4 4 4 4 4 4 4 1     @X&X%X&X+X'.R.I                       ",
"                      %X%X%X%X$X+X X!.e 2 N 4.6.5.4.4.4.4.4.4.4.4.4.4.4.4.5.6.6.5.3.n 3 F [.$X&X@X X).Y I                       ",
"                      %X%X%X&X#XoX_.T 9 4 } V.G.G.G.G.G.G.G.G.G.G.G.G.G.G.F.H.G.L.N.3.4 q E OX$XoX`.~.Y P                       ",
"                      %X&X$X@XoX|.(.H 5 1 n e.B.U.T.T.T.T.T.T.Y.Y.I.I.I.P.B.k.N.U.L.1.4 0 W .X+X X_.Q.U P                       ",
"                      %X$X+XoX|.}.(.J 5 @ 1 v 3.N.T.T.T.Y.T.Y.I.P.K.K.K.A.5.N 3.N.G.1.4 9 T {. X}.`.Q.U P                       ",
"                      %X#X X{.`.]._.J 9 o o 3 n e.F.I.Y.Y.Y.Y.P.J.D.D.v.a.M u N k.H.6.4 8 J _.}.`._.Q.Y P                       ",
"                        OX'.^./.`._.J 9 & u n B 3.9.k.L.Y.T.Y.P.J.v.j.7.] M M 5.B.F.1.4 8 J (.`./.Q.W.U                         ",
"                          E.R.W._.(.J 9 3 } w.9.n v 3.B.Y.T.Y.I.J.v...c s [ a.A.P.G.1.4 8 J (._.W.Y U                           ",
"                            P R.^.~.H 5 4 9.F.w.v < N k.I.Y.I.P.J.c.] 3 3 ] c.K.Y.G.1.4 5 H ~.^.R.P                             ",
"                              R.W.Y S , u 9.L.w.v & m k.K.P.K.J.J.c.[ < < ] v.P.Y.L.4.4 , S Y W.R.                              ",
"                                U L A $ 4 6.H.w.v 3 M j.S.S.S.S.S.c.{ 2 2 { c.K.I.G.1.4 $ A L U                                 ",
"                                  D w $ 2 | b.j.] m { g.x.n.C.S.S.v.8.M M 8.v.J.Z.b.| 2 $ w D                                   ",
"                                    7 O 3 ^ t.y.g.s.r.t.u.x.C.S.S.D.c.a.a.c.C.C.x.t.^ 3 O 7                                     ",
"                                      X * ~ =.t.z.z.h.,.,.h.M.m.m.M.c.c.c.m.M.z.t.=.~ * X                                       ",
"                                      X % y /  .<.d.<.;.` <.p.0.$.$.$.7.8.0.d.%._ / y % X                                       ",
"                                      o @ : a x X.#.@.O.O.@.#.X.Z z l z Z X.@.X.x a : @ o                                       ",
"                                      o @ : p x o.O.O.@.#.#.#.X.x g p p g ! +.o.x p : @ o                                       ",
"                                      X % d / ) ` ;.<.d.f.f.d.<. .' ' ' _ ` *.` ) / d % X                                       ",
"                                      X * Q =.>.>.>.t.z.M.m.M.h.t.-.-.-.-.-.>.>.>.=.Q * X                                       ",
"                                      X * f ) &.&. .:.p.s.s.s.p.;.( ( &.&.( ( &.=.) f * X                                       ",
"                                      o & t g h h h b C C C C b b j j h h h h h h g t & o                                       ",
"                                      o + ; > i 6 6 6 6 k k k k k k k i 6 6 6 i i > ; + o                                       ",
"                                        + # = = = = = = ; r F G G F r ; = = = = = = # +                                         ",
"                                          + + + + + + + - F R W W R F - + + + + + + +                                           ",
"                                            o o o o . X - V K R R K V - X . o o o o                                             ",
"                                                        $ q e e e e q $                                                         ",
"                                                          # # # # # #                                                           ",
"                                                            . . . .                                                             ",
"                                                                                                                                ",
"                                                                                                                                ",
"                                                                                                                                ",
"                                                                                                                                ",
"                                                                                                                                ",
"                                                                                                                                ",
"                                                                                                                                ",
"                                                                                                                                ",
"                                                                                                                                ",
"                                                                                                                                ",
"                                                                                                                                ",
"                                                                                                                                ",
"                                                                                                                                ",
"                                                                                                                                ",
"                                                                                                                                ",
"                                                                                                                                "
};